<?xml version="1.0" standalone="no"?>
<!DOCTYPE svg PUBLIC "-//W3C//DTD SVG 20010904//EN"
 "http://www.w3.org/TR/2001/REC-SVG-20010904/DTD/svg10.dtd">
<svg version="1.0" xmlns="http://www.w3.org/2000/svg"
 width="1200.000000pt" height="100.000000pt" viewBox="0 0 1200.000000 100.000000"
 preserveAspectRatio="xMidYMid meet">

<g transform="translate(0.000000,100.000000) scale(0.100000,-0.100000)"
fill="#000000" stroke="none">
<path d="M5463 952 c-175 -62 -252 -207 -183 -343 23 -44 46 -59 89 -59 31 0
61 29 61 59 0 9 -19 32 -42 52 l-43 37 20 37 c31 60 86 90 159 89 36 0 74 -7
93 -17 105 -55 165 -193 133 -309 -19 -66 -113 -129 -221 -149 -94 -17 -186 5
-427 101 -110 44 -224 85 -253 91 -120 26 -242 -7 -413 -110 -47 -28 -89 -51
-94 -51 -5 0 -40 18 -78 40 -38 21 -109 51 -159 67 -80 24 -106 27 -230 27
-135 0 -143 -1 -220 -33 -44 -18 -102 -45 -130 -61 l-50 -28 -115 58 c-63 31
-221 111 -350 176 -245 125 -427 195 -600 231 -121 26 -354 25 -430 -1 -102
-35 -274 -122 -435 -221 -275 -170 -447 -265 -520 -288 -62 -20 -91 -22 -260
-21 -178 0 -196 2 -280 28 -116 35 -273 113 -355 176 -104 80 -130 96 -80 49
172 -161 422 -283 635 -309 120 -16 318 -8 395 16 56 17 277 124 410 199 432
243 571 293 765 274 152 -15 330 -60 464 -118 47 -20 207 -99 355 -175 308
-159 294 -136 133 -217 -151 -77 -239 -92 -383 -69 -121 20 -318 101 -518 215
-120 67 -308 159 -371 180 -69 23 -142 29 -191 16 -58 -16 -144 -79 -167 -124
-44 -86 -29 -234 32 -308 36 -43 129 -95 199 -110 138 -29 292 67 292 183 0
68 -67 130 -105 98 -22 -19 -18 -48 10 -66 39 -25 30 -59 -25 -97 -30 -21
-101 -22 -138 -3 -37 19 -68 55 -87 98 -32 77 -11 144 55 178 86 44 167 21
495 -144 324 -162 497 -215 670 -203 104 7 170 31 321 118 86 49 132 70 147
66 12 -3 76 -24 141 -46 173 -60 298 -84 436 -84 144 -1 203 15 445 118 220
94 292 112 376 96 33 -7 150 -48 260 -92 110 -44 237 -88 282 -99 119 -29 245
-27 344 5 85 27 204 99 242 146 l24 30 37 -38 c44 -47 155 -113 230 -139 43
-15 83 -19 185 -19 152 1 165 4 438 112 104 40 216 81 249 89 85 22 163 9 301
-51 34 -14 37 -18 25 -32 -12 -14 -11 -15 7 -4 17 10 38 5 140 -37 173 -72
230 -85 365 -85 136 0 259 23 434 82 l118 40 63 -39 c217 -133 340 -161 536
-124 142 27 229 60 485 188 137 68 277 133 312 145 104 35 185 23 230 -34 46
-58 15 -185 -57 -232 -50 -34 -129 -32 -170 3 -38 31 -39 59 -6 94 30 31 25
57 -13 67 -20 5 -31 0 -54 -26 -22 -25 -28 -41 -28 -80 0 -121 146 -212 292
-182 82 17 176 78 213 136 26 42 30 60 34 133 4 111 -8 151 -64 200 -133 117
-233 109 -525 -41 -372 -191 -427 -218 -504 -248 -140 -54 -290 -72 -394 -48
-48 11 -211 85 -246 112 -18 13 5 26 275 165 162 83 331 167 377 186 195 84
460 133 606 114 104 -14 259 -77 455 -185 265 -146 488 -259 560 -283 84 -28
271 -38 406 -20 214 26 463 148 635 309 50 47 24 31 -80 -49 -82 -63 -239
-141 -355 -176 -84 -26 -102 -28 -280 -28 -169 -1 -198 1 -260 21 -72 23 -236
114 -520 288 -161 99 -333 187 -435 221 -76 26 -309 27 -430 1 -176 -37 -356
-106 -590 -226 -301 -153 -448 -225 -490 -240 -33 -12 -39 -11 -96 22 -34 19
-100 50 -145 68 -82 33 -88 34 -224 33 -125 0 -149 -3 -225 -28 -47 -15 -110
-41 -141 -58 l-57 -30 -78 46 c-159 92 -278 122 -392 97 -29 -6 -148 -49 -264
-95 -284 -112 -362 -124 -490 -76 -111 42 -167 121 -155 220 13 112 80 199
175 226 91 27 177 -5 217 -81 l20 -37 -42 -37 c-47 -40 -51 -55 -27 -89 23
-34 78 -30 114 8 34 37 55 107 45 157 -24 131 -148 222 -313 231 -99 5 -149
-7 -255 -61 -70 -36 -157 -112 -157 -138 0 -17 -29 -9 -35 10 -11 36 -96 102
-183 144 -80 38 -93 42 -182 44 -73 3 -107 -1 -147 -15z m-1362 -491 c81 -21
219 -79 219 -92 0 -13 -46 -34 -140 -64 -119 -37 -258 -37 -422 -1 -135 31
-190 48 -195 63 -4 12 156 89 212 102 73 17 246 13 326 -8z m4164 -45 c63 -31
115 -61 115 -66 0 -25 -247 -72 -375 -72 -96 0 -122 4 -205 31 -112 37 -177
73 -158 88 19 15 124 55 182 70 33 8 99 11 189 10 l137 -3 115 -58z"/>
</g>
</svg>
