<?xml version="1.0" encoding="UTF-8"?>
<svg width="150px" height="150px" viewBox="0 0 150 150" version="1.1" xmlns="http://www.w3.org/2000/svg" xmlns:xlink="http://www.w3.org/1999/xlink">
    <!-- Generator: Sketch 47.1 (45422) - http://www.bohemiancoding.com/sketch -->
    <title>adeslas-s</title>
    <desc>Created with Sketch.</desc>
    <defs></defs>
    <g id="Page-1" stroke="none" stroke-width="1" fill="none" fill-rule="evenodd">
        <g id="adeslas-s" fill="#0098D4">
            <g id="Page-1" transform="translate(10.000000, 53.000000)">
                <path d="M125.289634,28.7330763 C125.289634,30.5431527 123.75742,31.613916 122.033679,31.613916 C119.940779,31.613916 118.127725,30.0350611 117.662305,27.8002519 L115.944519,27.8002519 L116.225359,32.1239924 C117.618641,33.0062061 119.991389,33.4736107 121.615893,33.4736107 C125.612153,33.4736107 129.008031,31.6605573 129.008031,27.2475038 C129.008031,20.8735344 119.754214,22.5486489 119.754214,18.0859771 C119.754214,16.1776565 121.108794,15.1535344 122.963527,15.1535344 C125.473221,15.1535344 126.777191,16.3195649 127.289252,18.6893359 L128.776809,18.6893359 L128.960397,14.5035344 C127.010397,13.9021603 125.055435,13.2948321 123.054824,13.2948321 C119.24513,13.2948321 115.713298,15.1535344 115.713298,19.4355954 C115.713298,26.0368168 125.289634,25.3371985 125.289634,28.7330763" id="Fill-16"></path>
                <path d="M105.016878,22.8264122 C105.858405,22.8264122 106.737641,22.9663359 107.247718,23.0576336 L107.387641,29.8900763 C106.643366,30.360458 105.716496,30.6839695 104.273595,30.6839695 C102.320618,30.6839695 100.646496,29.0545038 100.646496,26.9219084 C100.646496,23.9408397 102.881305,22.8264122 105.016878,22.8264122 M102.418863,33.4735115 C104.459168,33.4735115 105.946725,32.3570992 107.52955,31.1960305 C108.086267,32.3570992 109.481534,33.239313 111.250924,33.4735115 L114.732145,30.6839695 L114.036496,29.9883206 C113.712985,30.0816031 113.295198,30.1699237 113.063977,30.1699237 C112.035885,30.1699237 111.665733,29.5655725 111.665733,27.4280153 L111.665733,25.8015267 C111.716344,23.150916 111.849321,20.7364885 111.849321,19.0653435 C111.849321,14.4091603 108.317489,13.2947328 104.178328,13.2947328 C101.99413,13.2947328 100.133443,13.5735878 98.181458,14.1332824 L98.181458,18.5503053 L99.3008473,18.5503053 C100.462908,16.8285496 101.626954,16.0832824 103.905427,16.0832824 C107.06413,16.0832824 107.247718,18.8758015 107.247718,21.3854962 C106.602679,21.3854962 105.804817,21.2475573 105.061534,21.2475573 C100.833061,21.2475573 96.1371832,23.150916 96.1371832,28.08 C96.1371832,31.5215267 99.2532137,33.4735115 102.418863,33.4735115" id="Fill-14"></path>
                <path d="M88.5187863,6.92433588 C88.6557328,8.69471756 88.8859618,12.1809008 88.8859618,14.8771603 L88.8859618,29.9422748 C88.8859618,30.9634198 88.5187863,31.8009771 87.0322214,32.0312061 L87.0322214,32.9630382 C88.3739008,32.9630382 89.6778702,32.8241069 91.0225267,32.8241069 C92.4217634,32.8241069 93.8140534,32.9630382 95.2063435,32.9630382 L95.2063435,32.0312061 C93.7634427,31.8009771 93.3962672,30.9634198 93.3962672,29.3855573 L93.3962672,11.3453282 C93.3962672,7.06822901 93.5322214,2.50929771 93.579855,-0.000396946565 L92.6490153,-0.000396946565 C91.440313,1.30158779 87.7725267,2.60456489 86.140084,2.83578626 L86.140084,3.90555725 C87.629626,3.90555725 88.4245115,5.01899237 88.5187863,6.92433588" id="Fill-11"></path>
                <path d="M80.9839466,28.7330763 C80.9839466,30.5431527 79.4497481,31.613916 77.7279924,31.613916 C75.6390611,31.613916 73.8230305,30.0350611 73.3605878,27.8002519 L71.6388321,27.8002519 L71.917687,32.1239924 C73.3139466,33.0062061 75.6807405,33.4736107 77.307229,33.4736107 C81.3104351,33.4736107 84.6993664,31.6605573 84.6993664,27.2475038 C84.6993664,20.8735344 75.4524962,22.5486489 75.4524962,18.0859771 C75.4524962,16.1776565 76.7971527,15.1535344 78.6578397,15.1535344 C81.1685267,15.1535344 82.4715038,16.3195649 82.9845573,18.6893359 L84.4691374,18.6893359 L84.6586794,14.5035344 C82.7027252,13.9021603 80.7507405,13.2948321 78.7501298,13.2948321 C74.9394427,13.2948321 71.405626,15.1535344 71.405626,19.4355954 C71.405626,26.0368168 80.9839466,25.3371985 80.9839466,28.7330763" id="Fill-9"></path>
                <path d="M60.1064427,14.8767634 C63.1281985,14.8767634 64.4311756,16.6411908 64.4311756,19.385084 L56.0595725,19.385084 C55.9702595,17.0133282 57.5967481,14.8767634 60.1064427,14.8767634 M62.1080458,33.4737099 C64.0570534,33.4737099 65.5922443,33.1035573 66.5220916,32.7740916 L69.0347634,29.1033282 L68.5663664,28.544626 C67.1740763,29.565771 65.4076641,30.0361527 63.6888855,30.0361527 C58.8997252,30.0361527 55.5961374,25.8503511 55.922626,21.2477557 L69.4525496,21.2477557 C69.404916,16.3196641 65.6825496,13.2949313 60.8963664,13.2949313 C54.5710229,13.2949313 51.4123206,19.0129466 51.4123206,23.3833282 C51.4123206,27.7556947 54.5710229,33.4737099 62.1080458,33.4737099" id="Fill-7"></path>
                <path d="M38.4861527,15.1539313 C42.1579084,15.1539313 43.4618779,17.013626 43.4618779,21.4296565 L43.4618779,29.0579771 C42.2511908,30.2190458 41.0454656,30.6864504 39.694855,30.6864504 C35.6509618,30.6864504 33.3268397,26.1295038 33.3268397,22.2691985 C33.3268397,19.1065267 34.8153893,15.1539313 38.4861527,15.1539313 M37.6942443,33.4740076 C39.2780611,33.4740076 40.1632519,33.2417939 40.9511908,32.7714122 L43.6474504,30.4085878 C44.3937099,31.8008779 45.6937099,32.9629389 47.1812672,33.4740076 C48.0624885,32.3566031 49.7872214,31.1022519 51.4127176,30.0364504 L50.7170687,29.3378244 C50.3885954,29.5224046 50.0630992,29.7109542 49.4130992,29.7109542 C48.3433282,29.7109542 47.9731756,28.776145 47.9731756,27.1040076 L47.9731756,15.5320229 C47.9731756,8.83354962 48.1597405,3.62461832 48.1597405,-0.000496183206 L47.2308855,-0.000496183206 C46.0658473,1.30248092 43.2772977,2.60446565 40.9978321,3.20683206 L40.9978321,4.13568702 C42.205542,4.32423664 43.3705802,4.97522901 43.3705802,7.57622137 L43.3705802,14.4562977 C41.7847786,13.7140076 40.206916,13.2942366 38.6280611,13.2942366 C32.6738626,13.2942366 28.3014962,17.013626 28.3014962,23.4788931 C28.3014962,29.103626 32.0268397,33.4740076 37.6942443,33.4740076" id="Fill-4"></path>
                <path d="M13.2903664,9.1111145 L17.9872366,21.3420305 L8.78006107,21.3420305 L13.2903664,9.1111145 Z M7.98914504,33.0072977 L7.98914504,31.9831756 C6.87471756,31.9831756 6.31998473,31.1029466 6.31998473,29.9885191 C6.31998473,29.4774504 6.40830534,28.4523359 6.64051908,27.6624122 L7.89883969,23.5718779 L18.8198321,23.5718779 L20.4502901,27.8956183 C20.7728092,28.8284427 21.0040305,29.6163817 21.0040305,30.2624122 C21.0040305,31.3331756 20.4502901,31.9831756 19.4747939,31.9831756 L19.4747939,33.0072977 C21.0586107,33.0072977 22.5888397,32.8237099 24.1716641,32.8237099 C25.7495267,32.8237099 27.2876947,33.0072977 28.8615878,33.0072977 L28.8615878,31.9831756 C27.1934198,31.8015725 26.7756336,30.2624122 25.1481527,26.1292061 L14.9654809,0.000198473282 L14.4067786,0.000198473282 L4.50494656,25.0137863 C3.62273282,27.2476031 1.85632061,31.6140153 -0.000396946565,31.9831756 L-0.000396946565,33.0072977 C1.34029008,33.0072977 2.64624427,32.8237099 3.99189313,32.8237099 C5.34349618,32.8237099 6.64051908,33.0072977 7.98914504,33.0072977 L7.98914504,33.0072977 Z" id="Fill-1"></path>
            </g>
        </g>
    </g>
</svg>