<svg width="150" height="150" xmlns="http://www.w3.org/2000/svg"><g fill="none" fill-rule="evenodd"><path d="M47.738 76.899c.43 5.998 5.785 7.222 10.472 7.222 6.25 0 10.275-2.248 10.275-7.063 0-2.92-1.992-4.775-7.151-5.485l-5.548-.75c-2.775-.397-3.398-1.184-3.398-2.567 0-2.446 2.892-3.158 5.39-3.158 4.065 0 6.02 1.776 6.137 3.87h3.907c-.354-4.026-3.283-6.95-10.002-6.95-5.746 0-9.339 2.49-9.339 6.673 0 3.197 2.618 5.092 5.548 5.485l6.447.868c3.124.434 3.868 1.302 3.868 2.763 0 1.46-1.211 3.234-6.251 3.234-4.964 0-6.448-2.285-6.448-4.142h-3.907m27.696-5.721c.586-3.71 3.829-5.841 7.423-5.841 3.674 0 6.565 2.09 7.151 5.84H75.434zm18.717 3.078v-.514c0-8.566-5.704-11.723-11.097-11.723-7.97 0-11.879 5.093-11.879 11.052 0 5.958 3.909 11.05 11.879 11.05 4.024 0 8.598-2.01 10.549-6.985h-4.14c-1.33 2.922-4.376 3.671-6.606 3.671-3.474 0-7.23-2.29-7.54-6.551H94.15z" fill="#283471"/><path d="M45.057 73.822c0 6.105-6.597 10.313-14.449 10.313-5.07 0-8.475-2.385-8.475-5.824 0-3.857 2.848-5.332 8.266-6.034l7.85-.984c3.89-.49 5.766-.98 6.808-2.175v4.704zM23.315 62.76h-6.53c.901-9.194 7.155-12.772 18.061-12.772 7.433 0 16.743 1.895 16.743 10.456v2.334c-2.294 1.203-3.659 3.205-3.659 5.912 0 2.635 1.592 4.433 3.659 5.367v2.285h-4.443l.043.597c.431 6.028 5.495 7.527 9.956 7.715v4.018c-1.667.28-3.75.42-5.42.42-3.472 0-5.764-1.633-6.25-5.773-2.78 3.791-9.587 5.962-15.492 5.962-12.088 0-14.796-6.314-14.796-11.086 0-6.734 3.959-10.173 15.63-11.435l7.92-.844c3.89-.42 6.32-1.122 6.32-4.42 0-5.051-4.861-6.032-10.489-6.032-5.973 0-11.044 1.613-11.253 7.296z" fill="#DA2E3A"/><path d="M99.35 62.732h-4.183v3.078h4.183v17.602h3.906V65.81h5.786v-3.078h-5.786v-2.883c0-1.696 1.055-2.01 3.594-2.01.703 0 1.447.038 2.192.077v-3.078c-1.134-.117-2.192-.315-3.402-.315-3.948 0-6.29 1.3-6.29 5.13v3.079m27.652 12.512c0 3.432-3.713 5.797-8.125 5.797-2.857 0-4.77-1.34-4.77-3.276 0-2.17 1.604-2.997 4.65-3.392l4.417-.551c2.187-.276 3.242-.554 3.828-1.227v2.649zm-12.229-6.04c.117-3.197 2.968-4.106 6.33-4.106 3.163 0 5.899.554 5.899 3.396 0 1.855-1.366 2.25-3.557 2.486l-4.452.473c-6.567.71-8.793 2.644-8.793 6.432 0 2.685 1.524 6.236 8.322 6.236 3.323 0 7.15-1.224 8.714-3.354.272 2.33 1.564 2.88 3.515 2.88.94 0 2.113-.079 3.05-.235v-2.765c-.39.08-.937.16-1.368.16-1.213 0-1.761-.554-1.761-1.778V67.901c0-4.815-5.233-5.882-9.413-5.882-6.134 0-9.653 2.014-10.16 7.186h3.674zM77.305 94.403c.06.674.276 1.19.638 1.544.365.357.816.6 1.34.726a6.386 6.386 0 0 0 1.615.186c1.084 0 1.942-.194 2.566-.586.628-.395.946-.998.96-1.815a1.457 1.457 0 0 0-.564-1.213c-.382-.31-1.011-.529-1.892-.652l-1.901-.255c-.464-.063-.78-.166-.944-.308a.665.665 0 0 1-.223-.561c.006-.276.103-.491.289-.649.185-.158.42-.268.698-.333.283-.065.572-.095.86-.093.698.009 1.219.143 1.565.393.343.25.526.556.545.922h1.338a2.287 2.287 0 0 0-.894-1.693c-.547-.428-1.393-.651-2.54-.665-.992.005-1.773.205-2.338.6-.564.395-.85.947-.864 1.664.02.546.207.974.575 1.29.366.315.806.506 1.33.575l2.213.294c.523.071.877.186 1.066.338a.697.697 0 0 1 .26.602c.02.263-.12.507-.423.736-.3.226-.875.349-1.724.363-.836-.017-1.416-.175-1.744-.47-.326-.29-.481-.605-.469-.94h-1.338m9.515-1.943c.114-.634.412-1.122.886-1.463.472-.343 1.027-.517 1.66-.52.64.003 1.18.174 1.623.515.443.337.718.831.83 1.469H86.82zm6.42 1.047v-.174c-.013-.966-.207-1.741-.578-2.327a3.28 3.28 0 0 0-1.422-1.272 4.296 4.296 0 0 0-1.81-.383c-.91.01-1.667.185-2.27.523-.605.34-1.054.793-1.354 1.358-.3.566-.45 1.187-.45 1.872 0 .684.15 1.308.45 1.873.3.565.749 1.018 1.354 1.356.603.34 1.36.515 2.27.526.47 0 .938-.082 1.404-.24.472-.163.899-.42 1.288-.769.391-.349.7-.803.931-1.362H91.63c-.246.485-.586.815-1.016.995a3.134 3.134 0 0 1-1.249.25 2.914 2.914 0 0 1-1.178-.255 2.462 2.462 0 0 1-.955-.751c-.26-.33-.41-.738-.457-1.22h6.465zm7.663-.427c-.007.734-.236 1.329-.686 1.78-.45.453-1.082.685-1.902.699-.823-.014-1.461-.246-1.908-.698-.449-.452-.674-1.047-.68-1.782.006-.74.231-1.34.68-1.804.447-.466 1.085-.703 1.908-.72.82.017 1.452.254 1.902.72.45.463.68 1.063.686 1.804zm0-2.457h-.029c-.267-.403-.646-.7-1.126-.896a4.195 4.195 0 0 0-1.608-.297 4.568 4.568 0 0 0-1.82.363c-.58.244-1.06.632-1.433 1.168-.373.534-.564 1.235-.581 2.104.017.861.208 1.562.583 2.096.371.532.85.918 1.433 1.16a4.612 4.612 0 0 0 1.832.364 3.83 3.83 0 0 0 1.422-.243c.483-.177.914-.529 1.298-1.058h.03v1.017c.008.595-.188 1.09-.594 1.493-.406.4-1.08.61-2.023.627-.64.011-1.155-.066-1.553-.229-.395-.16-.656-.466-.779-.91h-1.34c.103.638.343 1.115.708 1.428.362.317.801.523 1.302.622a7.208 7.208 0 0 0 1.53.133c1.432.01 2.473-.264 3.122-.825.655-.557.973-1.464.966-2.713v-6.434h-1.34v1.03zm9.976-1.03h-1.341v4.047c-.023.692-.254 1.213-.695 1.566-.444.35-.981.524-1.61.527-.718-.003-1.24-.144-1.579-.421-.34-.282-.507-.683-.503-1.2v-4.519h-1.338v4.787c.018.87.295 1.5.838 1.896.546.395 1.249.589 2.107.583a3.979 3.979 0 0 0 1.518-.286c.493-.194.91-.532 1.234-1.014h.028v1.057h1.34v-7.023m1.636 7.023h1.34V93.05c.012-.763.221-1.341.627-1.726.41-.387.95-.58 1.625-.58.18 0 .34.013.485.037.147.025.303.059.469.096V89.43a2.21 2.21 0 0 0-.354-.063 4.275 4.275 0 0 0-.412-.016 2.575 2.575 0 0 0-1.303.346c-.42.24-.79.629-1.112 1.18h-.024v-1.284h-1.341v7.023m11.874-3.512c.003.436-.082.85-.256 1.245a2.25 2.25 0 0 1-.847.986c-.394.257-.909.39-1.555.398-.643-.008-1.163-.14-1.55-.398a2.245 2.245 0 0 1-.848-.986 3.02 3.02 0 0 1-.259-1.245 3.031 3.031 0 0 1 .259-1.246c.175-.4.456-.731.848-.984.387-.256.907-.389 1.55-.397.646.008 1.161.14 1.555.397.389.253.672.584.847.984.174.395.26.812.256 1.246zm-6.735 0a3.9 3.9 0 0 0 .454 1.873c.297.565.749 1.018 1.347 1.356.606.34 1.364.515 2.276.526.911-.011 1.672-.186 2.273-.526a3.32 3.32 0 0 0 1.355-1.356 3.93 3.93 0 0 0 .447-1.873 3.927 3.927 0 0 0-.447-1.872c-.3-.565-.75-1.018-1.355-1.358-.601-.338-1.362-.512-2.273-.523-.912.01-1.67.185-2.276.523-.598.34-1.05.793-1.347 1.358a3.9 3.9 0 0 0-.454 1.872zm9.073 1.299c.062.674.276 1.19.64 1.544.366.357.812.6 1.338.726a6.416 6.416 0 0 0 1.615.186c1.09 0 1.942-.194 2.568-.586.628-.395.946-.998.96-1.815a1.457 1.457 0 0 0-.563-1.213c-.385-.31-1.015-.529-1.89-.652l-1.907-.255c-.463-.063-.777-.166-.938-.308a.661.661 0 0 1-.229-.561c.012-.276.104-.491.292-.649.186-.158.417-.268.698-.333.283-.065.57-.095.863-.093.695.009 1.216.143 1.56.393.345.25.528.556.545.922h1.34a2.299 2.299 0 0 0-.897-1.693c-.547-.428-1.39-.651-2.534-.665-.997.005-1.777.205-2.344.6-.563.395-.85.947-.86 1.664.016.546.209.974.574 1.29.366.315.81.506 1.327.575l2.213.294c.526.071.883.186 1.069.338a.695.695 0 0 1 .258.602c.02.263-.121.507-.421.736-.303.226-.878.349-1.723.363-.836-.017-1.42-.175-1.745-.47-.326-.29-.484-.605-.468-.94h-1.341" fill="#283471"/></g></svg>