<?xml version="1.0" encoding="UTF-8" standalone="no"?>
<svg xmlns:dc="http://purl.org/dc/elements/1.1/" xmlns:cc="http://creativecommons.org/ns#" xmlns:rdf="http://www.w3.org/1999/02/22-rdf-syntax-ns#" xmlns:svg="http://www.w3.org/2000/svg" xmlns="http://www.w3.org/2000/svg" xmlns:xlink="http://www.w3.org/1999/xlink" xmlns:sodipodi="http://sodipodi.sourceforge.net/DTD/sodipodi-0.dtd" xmlns:inkscape="http://www.inkscape.org/namespaces/inkscape" version="1.0" width="881.82526" height="883.32587" id="svg2" inkscape:version="0.48.3.1 r9886" sodipodi:docname="AXA_Logo_FR.svg">
  <metadata id="metadata77">
    <rdf:RDF>
      <cc:Work rdf:about="">
        <dc:format>image/svg+xml</dc:format>
        <dc:type rdf:resource="http://purl.org/dc/dcmitype/StillImage" />
        <dc:title></dc:title>
      </cc:Work>
    </rdf:RDF>
  </metadata>
  <path
     inkscape:connector-curvature="0"
     style="fill:#213683;fill-opacity:1;fill-rule:nonzero;stroke:none"
     id="path2886"
     d="m 1.0000001e-6,0 0,883.32586 L 881.82527,883.32586 881.82527,0 0,0 z" />
  <path
     inkscape:connector-curvature="0"
     style="fill:#da2825;fill-opacity:1;fill-rule:evenodd;stroke:none"
     id="path2898"
     d="M 546.70167,436.1609 881.82527,0 l -49.5182,0 -336.6242,436.1609 51.0188,0" />
  <path
     inkscape:connector-curvature="0"
     style="fill:#ffffff;fill-opacity:1;fill-rule:evenodd;stroke:none"
     id="path2902"
     d="m 673.74857,627.23139 c 10.8039,30.09443 19.6489,61.58938 30.011,92.03395 6.7275,18.73191 17.2564,56.91266 29.5109,72.02657 l -83.0306,0 c 0.075,-23.74209 -9.2868,-45.55847 -15.5057,-68.0251 -5.3937,-15.6391 -9.3118,-31.65334 -15.0056,-47.51752 l -1.5005,-6.00222 -1.5006,-5.00184 -1.5005,-4.00148 -1.0004,-4.00148 -1.0004,-2.50092 -0.5001,-1.50055 0,-0.50019 -132.0488,0 -21.0077,29.51089 0.5002,0.50018 0.5002,2.50093 1.5005,4.00147 1.5006,5.00185 2.0007,6.00221 c 3.9681,11.9294 7.5194,24.25061 11.5043,36.01329 8.6531,27.67687 8.7615,29.20244 23.5086,55.52048 l -79.5293,0 c -1.7006,-16.78119 -5.0769,-26.97662 -10.0037,-43.01587 -13.1882,14.13021 -22.6,25.20096 -30.5113,43.01587 l -62.02284,0 c -3.25954,-18.3401 -4.70173,-26.9266 -11.50424,-45.01661 -13.73007,18.75692 -19.19042,22.82509 -29.51089,45.01661 l -61.52269,0 c 27.24338,-24.88418 49.44323,-56.80429 72.02657,-86.03174 l -15.50572,-53.01956 -131.04835,0 0,0.50019 -3.0011,3.00111 -2.00074,3.0011 -2.50092,3.50129 -3.00111,4.00148 -3.50129,5.00185 -4.00148,4.50166 c -11.25415,15.8225 -23.792108,30.69465 -35.012918,46.51716 -16.84788,22.04146 -36.713542,44.50808 -49.518262,69.02546 l -39.01439,0 0,-25.00923 1.50055,-1.50055 0.50018,0 0,-0.50019 2.00074,-2.00073 1.00037,-1.50056 c 3.49296,-3.60133 5.88551,-8.05297 9.50351,-11.50424 9.36178,-11.51258 18.44013,-23.25024 27.51015,-35.01292 25.842862,-32.67038 51.068832,-65.68256 76.02804,-99.03653 34.57942,-48.45121 82.57213,-98.41964 106.03912,-152.55628 l 67.52491,0 c 1.42552,35.81321 11.80435,54.25335 21.00775,88.03248 5.78546,18.31509 11.21247,36.73855 17.00627,55.02029 l 2.00074,6.00222 3.0011,11.00406 1.50056,4.00147 1.00037,4.00148 1.00037,3.00111 1.00037,2.50092 0.50018,1.50055 0,0.50019 23.00849,-29.0107 C 349.55394,576.2876 334.86519,505.70322 311.61495,462.67068 l 79.02912,0 c -0.8253,17.67319 6.0773,30.33619 10.0037,47.01735 4.6767,15.25563 8.1697,30.9114 13.0048,46.01697 10.1288,-13.47997 21.2829,-26.9266 31.5116,-40.51494 11.5877,-16.49776 30.3863,-31.04479 32.0119,-52.51938 l 66.0243,0 c -38.6226,35.99662 -75.6696,91.95893 -110.0406,133.54927 3.8264,11.88772 6.7859,24.14224 10.5039,36.01328 21.1661,-27.2934 42.3323,-54.73686 63.0232,-82.53044 19.4239,-26.9266 45.967,-56.57087 59.0218,-87.03211 l 64.5238,0 0,3.00111 0.5002,7.50277 1.5005,8.00295 1.0004,6.00221 40.515,140.05167 z m -98.0362,-101.53746 c -16.8229,30.13612 -43.5744,60.47231 -65.024,88.03248 l 88.0325,0 c -4.2766,-13.9885 -9.045,-28.4605 -13.505,-42.51569 l -2.0007,-7.00258 -2.0008,-6.00221 -1.5005,-5.00185 -1.0004,-4.00148 -1.5005,-10.00369 0,-13.00479 -0.5002,-1.00037 0,-0.50019 -1.0004,1.00037 z m -338.12473,0 c -9.12837,16.36437 -22.24987,33.94586 -34.01255,48.5179 -6.32733,8.72822 -13.48831,16.91457 -20.00738,25.50941 l -3.0011,4.00148 -2.50093,3.50129 -2.50092,2.50092 -1.50055,2.00074 -1.50056,1.50055 0,0.50019 88.03248,0 c -4.6934,-13.58835 -9.15338,-28.70226 -13.50498,-42.51569 l -2.00074,-7.00258 -2.00074,-6.00221 -1.50055,-5.00185 -1.00037,-4.00148 -1.50056,-10.00369 -0.50018,-8.50313 0,-5.50203 -0.50019,-0.50019 -0.50018,1.00037 z m 132.5489,205.57584 24.00883,-33.51237 c -5.8855,-14.41365 -10.7873,-29.18576 -15.5057,-44.01623 l -23.50867,30.51125 15.00554,47.01735" />
</svg>
