<?xml version="1.0" encoding="utf-8"?>
<!-- Generator: Adobe Illustrator 16.0.0, SVG Export Plug-In . SVG Version: 6.00 Build 0)  -->
<!DOCTYPE svg PUBLIC "-//W3C//DTD SVG 1.1//EN" "http://www.w3.org/Graphics/SVG/1.1/DTD/svg11.dtd">
<svg version="1.1" id="Capa_1" xmlns="http://www.w3.org/2000/svg" xmlns:xlink="http://www.w3.org/1999/xlink" x="0px" y="0px"
	 width="3479.304px" height="2255.546px" viewBox="445.884 1476.963 3479.304 2255.546"
	 enable-background="new 445.884 1476.963 3479.304 2255.546" xml:space="preserve">
<g>
	<g>
		<g>
			<g>
				<path fill="#95C6C6" d="M3272.775,1498.25c386.649,192.225,630.3,470.8,633.324,782.65
					c3.025,311.85-234.574,595.375-617.1,795.574c199.925-222.75,316.8-496.649,313.775-792.274
					C3599.75,1988.575,3477.1,1716.875,3272.775,1498.25"/>
				<path fill="#F29438" d="M3475.725,3102.6c-333.851,366.3-881.375,608.025-1502.05,614.625
					C1352.725,3723.825,800.25,3493.1,459.25,3133.95c391.601,202.399,925.101,324.225,1511.676,317.899
					C2557.5,3445.8,3088.525,3312.975,3475.725,3102.6"/>
				<g>
					<path fill="#003232" d="M1281.5,3076.75c2.476,3.025,5.226,6.6,8.801,10.45c3.3,3.85,7.699,7.425,13.199,11.274
						c5.226,3.301,12.375,6.325,20.351,8.25c8.524,2.476,18.7,3.575,30.524,3.575c13.476,0.274,26.125-2.2,38.5-7.149
						c6.051-2.476,10.45-6.051,14.575-10.176c3.3-4.125,5.226-9.35,5.226-15.675s-1.926-11.274-5.775-15.125
						c-3.85-3.575-9.075-6.325-15.95-8.524c-14.3-3.301-30.25-5.5-48.125-6.601c-8.524-0.825-17.05-2.2-25.024-3.851
						c-8.525-1.649-16.226-3.85-22.825-6.6c-14.575-5.5-22-16.5-22-32.45c0-17.6,7.149-30.25,21.45-38.225
						c13.475-7.7,31.35-11.275,53.625-11.275c10.449,0,20.074,0.825,28.875,2.75c8.524,2.2,15.949,4.95,22.824,7.976
						c13.2,6.875,22.551,14.574,27.775,23.1L1413.5,3000.3c-1.649-2.476-3.85-4.95-6.875-7.976c-3.3-3.024-7.149-6.324-12.375-9.625
						c-2.475-1.649-5.225-3.3-8.25-4.675c-3.3-1.375-6.6-2.475-10.725-3.3c-7.425-2.2-16.775-3.025-27.775-3.025
						c-16.5,0-29.425,2.2-39.6,6.601c-10.175,4.95-15.125,12.375-15.4,22.825c0,6.05,2.2,11.274,6.325,14.574
						c3.575,3.851,8.8,6.051,15.95,8.25c6.6,1.375,14.025,2.75,22.55,3.851c7.976,0.825,16.5,1.925,25.575,2.75
						c8.8,0.825,17.05,1.649,25.574,3.3c7.976,1.65,15.4,4.125,22,7.7c6.875,3.3,11.826,7.976,15.676,13.75
						s5.775,13.476,5.775,22.55c0,14.301-6.326,26.125-19.525,35.476c-13.2,9.899-33.551,14.85-60.775,15.125
						c-12.925,0-23.925-1.65-33.275-4.125c-9.35-2.2-17.324-5.5-23.924-9.075c-6.601-3.85-12.101-7.975-16.775-12.65
						c-4.4-4.125-8.525-8.25-11.825-12.1L1281.5,3076.75z"/>
					<path fill="#003232" d="M1525.7,2958.5h143.55v17.6h-123.475v52.801H1648.9v17.875h-103.125v59.399h125.949v17.601H1525.7
						V2958.5z"/>
					<path fill="#003232" d="M1921.975,3043.75v81.675h-17.05v-24.2c-2.476,3.025-5.775,6.325-9.351,9.351
						c-3.575,3.3-7.976,6.05-13.2,8.524c-4.949,2.476-11,4.676-17.875,6.325c-7.149,1.65-15.125,2.476-23.925,2.476
						c-31.075,0-53.899-8.801-69.024-25.575c-15.125-15.95-22.551-36.575-22.551-60.774c0-28.601,8.525-50.325,25.301-65.176
						c16.5-14.85,38.5-22,65.725-22c39.325,0.825,66,15.676,79.2,45.65l-16.226,8.8c-6.6-14.851-16.225-24.75-28.324-30.25
						c-12.375-4.95-23.926-7.425-35.476-7.425c-46.2,0.55-69.851,24.475-70.399,72.875c0,19.25,6.05,35.199,18.425,47.3
						c12.375,12.375,30.25,18.7,54.175,18.976c15.125,0,29.15-3.851,41.8-11.551c12.101-7.975,19.25-20.35,21.175-37.399h-67.1
						v-17.601H1921.975L1921.975,3043.75z"/>
					<path fill="#003232" d="M2184.875,3055.85c0,14.851-2.475,26.676-7.425,36.025c-4.95,9.625-11.55,17.05-19.524,22.274
						c-8.25,4.95-17.051,8.525-26.4,10.726c-9.625,2.199-19.525,3.3-28.875,3.3c-9.625,0-18.975-1.101-28.6-3.3
						c-9.9-1.926-18.7-5.5-26.676-10.726c-8.25-5.225-14.85-12.649-20.074-22.274c-5.226-9.351-7.976-21.176-7.976-36.025v-97.35
						h20.075v97.35c0.55,37.125,21.175,55.551,62.975,55.551c40.7,0.274,61.875-18.15,62.426-55.551v-97.35h19.8v97.35H2184.875z"/>
					<path fill="#003232" d="M2290.2,2958.5h92.95c6.6,0,13.75,0.55,20.899,1.65c7.425,1.1,14.3,3.024,20.351,6.324
						c6.6,3.301,11.824,7.976,15.949,14.025c3.851,6.05,5.775,14.3,6.051,24.75c0,8.524-1.65,15.675-4.95,21.175
						c-3.3,6.05-7.7,10.45-13.2,13.75c-4.949,3.575-10.449,6.05-15.949,7.7c-6.051,1.375-11.551,2.475-16.5,2.75l53.074,73.699
						h-24.199l-51.426-73.424h-62.975v73.149H2290.2V2958.5z M2310.275,3033.025h68.75c14.3,0.274,25.85-1.375,34.925-5.226
						c8.8-3.851,13.476-11.55,13.476-23.375c0-11.55-4.676-19.524-13.476-23.101c-9.075-3.574-20.625-5.225-34.925-5.225h-68.75
						V3033.025z"/>
					<path fill="#003232" d="M2539.075,3042.375c0.55-27.775,9.075-49.225,26.675-64.9c17.051-15.125,39.601-23.1,67.101-23.1
						c27.774,0,50.325,7.975,67.375,23.1c17.05,15.676,26.125,37.125,26.399,64.9c-0.824,29.15-10.449,50.6-29.425,64.625
						c-18.7,14.025-40.149,21.175-64.351,21.175c-24.199,0-45.375-7.149-64.074-21.175
						C2549.25,3092.975,2539.625,3071.8,2539.075,3042.375z M2558.875,3038.525c0.275,24.75,7.7,43.175,22.551,54.725
						c14.024,11.55,31.35,17.05,51.975,17.05c20.075,0,37.4-5.5,51.7-17.05c14.575-11.55,22-29.7,22.274-54.725
						c0-18.7-6.6-34.926-19.524-47.575c-12.925-12.925-31.075-19.525-54.45-19.8c-23.65,0.274-41.525,6.875-54.45,19.8
						C2565.475,3003.875,2559.15,3019.825,2558.875,3038.525z"/>
					<path fill="#003232" d="M2823.15,3077.025c2.2,3.024,5.225,6.324,8.524,10.175c3.3,3.85,7.976,7.7,13.2,11.274
						c5.226,3.575,12.375,6.325,20.625,8.25c8.25,2.476,18.425,3.851,29.976,3.851c13.475,0,26.399-2.2,38.774-6.875
						c5.775-2.75,10.45-6.05,14.025-10.45c3.85-4.125,5.5-9.35,5.5-15.675c0-6.601-1.925-11.55-5.775-15.125
						c-3.85-3.575-9.075-6.325-15.95-8.525c-14.024-3.3-29.975-5.774-48.125-6.875c-8.8-0.825-17.05-2.2-25.3-3.85
						c-8.524-1.375-15.95-3.575-22.55-6.601c-14.3-5.5-22-16.225-22-32.449c0-17.601,7.15-30.25,21.175-38.226
						c13.476-7.7,31.625-11.55,53.625-11.55c10.726,0,20.351,1.1,29.15,2.75c8.25,2.199,15.95,4.949,22.55,7.975
						c13.2,6.875,22.274,14.851,27.774,23.101l-14.3,11.825c-1.375-2.2-3.575-4.676-6.6-7.976c-3.3-3.024-7.15-6.325-12.375-9.625
						c-2.476-1.649-5.226-3.3-8.25-4.675c-3.025-1.375-6.325-2.476-10.45-3.301c-7.425-1.925-16.775-3.3-28.05-3.3
						c-15.95,0-29.15,2.2-39.325,6.875s-15.4,12.375-15.675,22.825c0,5.775,2.2,11,6.325,14.575c3.85,3.575,9.075,5.774,15.95,7.975
						c6.875,1.65,14.3,2.75,22.825,3.851c8.25,0.824,16.774,1.925,25.574,2.75c8.801,0.824,17.051,1.925,25.576,3.3
						c7.975,1.649,15.674,4.125,22,7.7c6.875,3.3,12.1,7.699,15.949,13.475c3.851,5.775,5.775,13.476,5.775,22.825
						c0,14.3-6.325,26.125-19.525,35.476c-13.475,9.899-33.549,15.125-60.774,15.399c-12.925,0-23.925-1.649-33.274-4.125
						c-9.351-2.2-17.326-5.226-23.65-9.351c-6.6-3.85-12.1-7.975-16.5-12.375c-4.675-4.125-8.525-8.524-11.825-12.375
						L2823.15,3077.025z"/>
				</g>
				<path fill="#003232" d="M973.775,2646.375c67.1-0.825,117.7-36.85,117.7-36.85c2.75,41.8,15.399,88.824,36.85,117.149
					c0,0-78.375,51.976-190.575,53.075c-199.375,2.199-292.324-176.825-294.524-376.476c-2.2-195.8,89.375-380.324,287.649-382.249
					c71.5-0.551,123.2,14.574,160.051,41.25l1.375,131.449c-46.476-40.425-81.95-48.125-122.65-47.574
					c-113.575,1.1-148.775,127.874-147.675,254.374C823.625,2525.65,866.801,2647.475,973.775,2646.375"/>
				<path fill="#003232" d="M2970.825,2362.85l3.851,385l-166.926,1.65l-4.125-383.625c-0.274-33.275-5.225-72.325,40.7-120.45
					c53.075-55.55,158.675-97.35,317.351-103.95l-1.65,131.176c0,0-30.525-9.351-54.725-10.726
					C3064.875,2259.45,2970,2275.125,2970.825,2362.85"/>
				<path fill="#003232" d="M2113.1,2585.05c-0.825-74.8-26.95-127.875-139.15-174.075c-45.1-18.699-74.25-39.6-74.8-72.324
					c0-33.275,22.275-60.226,66-60.775c51.7-0.274,113.85,20.9,113.85,20.9l-1.1-105.325c0,0-57.2-23.375-151.525-22.274
					c-115.774,1.375-192.225,81.399-191.125,180.125c0.825,68.199,25.025,124.85,131.45,165.55
					c54.175,20.899,74.525,43.175,74.8,74.25c0.551,36.575-28.324,63.8-70.949,64.35c-59.676,0.55-133.101-21.175-133.101-21.175
					l1.375,113.3c0,0,71.5,22.825,156.2,22.275C2032.25,2768.2,2114.2,2685.975,2113.1,2585.05"/>
				<path fill="#003232" d="M2334.2,2415.375c1.649-102.85,37.399-150.975,104.226-151.8c66-0.55,95.425,39.05,98.725,146.024
					L2334.2,2415.375 M2689.5,2493.2c14.301-226.325-86.625-330-245.3-328.625c-166.101,1.925-259.325,119.625-257.399,300.85
					c1.925,184.25,104.774,299.75,281.6,298.101c86.9-0.825,147.4-16.775,191.125-36.575l-1.375-114.675
					c0,0-71.775,35.475-171.6,36.574c-84.7,0.825-133.101-45.925-143.275-144.925L2689.5,2493.2z"/>
				<path fill="#003232" d="M1640.926,2729.15l-3.575-344.851c-1.65-156.75-98.45-210.1-229.075-209
					c-85.8,1.101-152.35,20.625-195.525,37.4l1.101,110.55c46.475-23.375,108.35-42.9,164.175-43.45
					c61.05-0.55,101.75,15.95,102.85,76.175l0.275,26.676c-173.525,17.875-322.025,63.524-320.375,212.574
					c1.375,119.625,87.725,181.226,254.925,179.301C1514.975,2773.7,1592.801,2755.825,1640.926,2729.15 M1483.9,2670.025
					c-14.85,7.699-36.025,12.1-60.775,12.375c-66.55,0.824-105.324-27.775-105.875-95.426c-1.1-82.5,64.075-108.074,164.726-119.074
					L1483.9,2670.025z"/>
			</g>
		</g>
	</g>
</g>
</svg>
