<?xml version="1.0" encoding="UTF-8"?>
<!-- Generator: Adobe Illustrator 17.0.0, SVG Export Plug-In . SVG Version: 6.00 Build 0)  -->
<!DOCTYPE svg PUBLIC "-//W3C//DTD SVG 1.1//EN" "http://www.w3.org/Graphics/SVG/1.1/DTD/svg11.dtd">
<svg version="1.1" id="Capa_1" xmlns="http://www.w3.org/2000/svg" xmlns:xlink="http://www.w3.org/1999/xlink" x="0px" y="0px" width="211.848px" height="35px" viewBox="0 0 211.848 35" enable-background="new 0 0 211.848 35" xml:space="preserve">
<g>
	<g>
		<path fill="#828282" d="M42.897,32.376c-1.441,0-2.531-0.325-2.531-0.325v-2.351h1.127v1.223l0.218,0.218    c0.327,0.06,0.726,0.097,1.187,0.097c0.994,0,1.297-0.459,1.297-1.127c0-0.703-0.279-0.982-1.284-1.261    c-1.733-0.472-2.52-1.089-2.52-2.702c0-1.646,1.334-2.496,3.174-2.496c1.297,0,2.291,0.315,2.291,0.315v2.244h-1.127v-1.129    l-0.206-0.205c-0.279-0.05-0.594-0.086-0.958-0.086c-0.859,0-1.356,0.401-1.356,1.019c0,0.629,0.134,0.919,1.454,1.283    c1.588,0.436,2.484,1.092,2.484,2.557C46.146,31.518,44.823,32.376,42.897,32.376z"/>
		<path fill="#828282" d="M52.142,29.36h-3.211c0.061,1.357,0.559,1.853,1.733,1.853c0.642,0,1.151-0.193,1.345-0.254v0.97    c-0.316,0.218-0.934,0.448-1.975,0.448c-1.563,0-2.957-0.918-2.957-3.198c0-2.35,1.26-3.464,2.774-3.464    c1.466,0,2.509,0.994,2.509,2.606v0.823L52.142,29.36z M48.943,28.512h1.673v-0.315c0-0.933-0.195-1.38-0.751-1.38    C49.295,26.817,49.016,27.422,48.943,28.512z"/>
		<path fill="#828282" d="M55.897,29.82c-0.291,0-0.569-0.024-0.836-0.084c-0.158,0.121-0.242,0.278-0.242,0.436    c0,0.231,0.146,0.34,0.497,0.34h1.829c1.114,0,2.059,0.327,2.059,1.671c0,1.539-1.549,2.253-3.428,2.253    c-1.624,0-2.653-0.327-2.653-1.37c0-0.521,0.412-0.836,0.837-1.041c-0.449-0.194-0.752-0.607-0.752-1.163    c0-0.498,0.303-1.044,1.006-1.468c-0.545-0.338-0.885-0.884-0.885-1.634c0-1.407,1.188-2.048,2.568-2.048    c0.34,0,0.678,0.036,0.982,0.123h2.289v0.883h-0.812l-0.108,0.108c0.146,0.267,0.231,0.57,0.231,0.934    C58.479,29.155,57.278,29.82,55.897,29.82z M54.819,32.146c-0.097,0.123-0.206,0.351-0.206,0.691c0,0.497,0.303,0.787,1.198,0.787    c0.945,0,1.574-0.291,1.574-0.934c0-0.46-0.275-0.545-0.773-0.545H54.819z M55.897,26.708c-0.569,0-0.897,0.351-0.897,1.054    c0,0.691,0.328,1.054,0.897,1.054c0.582,0,0.908-0.363,0.908-1.054C56.806,27.059,56.479,26.708,55.897,26.708z"/>
		<path fill="#828282" d="M65.226,25.837c0.485,0,0.558,0.277,0.558,0.531v4.786l0.219,0.22h0.534v0.882h-1.928    c-0.485,0-0.557-0.279-0.557-0.534v-0.193h-0.06c-0.194,0.218-0.787,0.847-1.721,0.847c-1.443,0-1.865-0.871-1.865-1.938v-3.501    l-0.219-0.218h-0.533v-0.883h2.034c0.485,0,0.558,0.277,0.558,0.531v3.781c0,0.364,0.036,0.86,0.739,0.86    c0.424,0,0.763-0.195,0.957-0.327v-3.744l-0.219-0.218h-0.532v-0.883H65.226z"/>
		<path fill="#828282" d="M69.999,31.374h0.68v0.882h-3.477v-0.882h0.532l0.218-0.22v-4.216l-0.218-0.218h-0.532v-0.883h1.925    c0.485,0,0.558,0.277,0.558,0.531v0.315h0.061c0.193-0.243,0.8-0.969,1.744-0.969c0.23,0,0.461,0.036,0.461,0.036v2.532h-1.09    v-0.847l-0.207-0.194c-0.375,0.072-0.689,0.217-0.86,0.315v3.598L69.999,31.374z"/>
		<path fill="#828282" d="M75.524,32.376c-1.636,0-2.896-1.03-2.896-3.332c0-2.301,1.261-3.331,2.896-3.331    c1.635,0,2.896,1.03,2.896,3.331C78.42,31.346,77.159,32.376,75.524,32.376z M75.524,26.864c-0.812,0-1.018,0.704-1.018,2.181    c0,1.478,0.205,2.181,1.018,2.181c0.811,0,1.018-0.703,1.018-2.181C76.542,27.568,76.335,26.864,75.524,26.864z"/>
		<path fill="#828282" d="M81.437,32.376c-1.285,0-2.072-0.279-2.072-0.279v-1.793h1.006v0.812l0.205,0.218    c0.256,0.039,0.534,0.049,0.861,0.049c0.701,0,0.934-0.314,0.934-0.776c0-0.471-0.135-0.702-1.141-0.907    c-1.502-0.305-1.829-1.105-1.829-1.939c0-1.285,0.945-2.048,2.581-2.048c1.041,0,1.842,0.205,1.842,0.205v1.759h-1.006v-0.74    l-0.206-0.194c-0.194-0.024-0.399-0.049-0.63-0.049c-0.605,0-0.97,0.267-0.97,0.656c0,0.386,0.036,0.678,0.945,0.859    c1.587,0.326,2.156,0.908,2.156,1.878C84.113,31.639,82.999,32.376,81.437,32.376z"/>
	</g>
	<g>
		<path fill="#828282" d="M49.739,19.321c-0.787,0.343-1.938,0.806-3.814,0.806c-4.056,0-6.617-2.28-6.617-7.261    c0-4.985,2.764-7.265,7.021-7.265c1.756,0,3.168,0.424,3.168,0.424v3.833H47.62V8.042l-0.342-0.343    c-0.303-0.04-0.606-0.079-0.949-0.079c-2.783,0-3.633,1.855-3.633,4.962c0,3.572,0.85,5.448,3.795,5.448    c0.363,0,0.687,0,1.008-0.039l0.363-0.365V15.67h1.877V19.321z"/>
		<path fill="#828282" d="M60.897,19.926h-3.209c-0.806,0-0.928-0.464-0.928-0.888v-0.322H56.66    c-0.323,0.365-1.311,1.412-2.865,1.412c-2.32,0-3.067-1.473-3.067-3.208c0-1.896,1.393-3.006,3.572-3.006h2.28v-0.967    c0-1.171-0.062-2.019-1.796-2.019c-0.264,0-0.586,0.02-0.909,0.062l-0.303,0.302v1.412h-1.876V9.616    c0,0.02,1.695-0.584,4.177-0.584c2.886,0,3.773,1.553,3.773,3.43v5.629l0.363,0.364h0.889V19.926z M56.58,17.303v-1.755h-1.434    c-0.929,0-1.352,0.403-1.352,1.07c0,0.848,0.282,1.229,1.23,1.229C55.691,17.847,56.257,17.524,56.58,17.303z"/>
		<path fill="#828282" d="M65.7,10.746v7.345l0.362,0.364h1.957v1.471c0,0-1.292,0.201-2.724,0.201    c-1.755,0-2.663-0.645-2.663-2.501v-6.88h-1.251V9.273h0.888l0.363-0.362l1.149-2.503H65.7v2.864h2.26v1.473H65.7z"/>
		<path fill="#828282" d="M78.673,19.926h-3.209c-0.807,0-0.928-0.464-0.928-0.888v-0.322h-0.1    c-0.324,0.365-1.312,1.412-2.865,1.412c-2.321,0-3.068-1.473-3.068-3.208c0-1.896,1.394-3.006,3.572-3.006h2.279v-0.967    c0-1.171-0.059-2.019-1.795-2.019c-0.262,0-0.586,0.02-0.908,0.062l-0.304,0.302v1.412h-1.876V9.616    c0,0.02,1.695-0.584,4.178-0.584c2.885,0,3.771,1.553,3.771,3.43v5.629l0.363,0.364h0.889V19.926z M74.354,17.303v-1.755h-1.432    c-0.929,0-1.352,0.403-1.352,1.07c0,0.848,0.283,1.229,1.231,1.229C73.468,17.847,74.032,17.524,74.354,17.303z"/>
		<path fill="#828282" d="M82.589,5.198c0.805,0,0.926,0.465,0.926,0.887V18.09l0.345,0.364h0.907v1.471h-5.569v-1.471h0.888    l0.364-0.364V7.033L80.085,6.67h-0.888V5.198H82.589z"/>
		<path fill="#828282" d="M95.64,19.926h-3.206c-0.81,0-0.929-0.464-0.929-0.888v-0.322h-0.102    c-0.322,0.365-1.311,1.412-2.863,1.412c-2.321,0-3.067-1.473-3.067-3.208c0-1.896,1.392-3.006,3.571-3.006h2.278v-0.967    c0-1.171-0.06-2.019-1.795-2.019c-0.263,0-0.585,0.02-0.908,0.062l-0.302,0.302v1.412h-1.876V9.616    c0,0.02,1.694-0.584,4.176-0.584c2.886,0,3.772,1.553,3.772,3.43v5.629l0.363,0.364h0.887V19.926z M91.322,17.303v-1.755h-1.432    c-0.928,0-1.351,0.403-1.351,1.07c0,0.848,0.281,1.229,1.23,1.229C90.435,17.847,91.001,17.524,91.322,17.303z"/>
		<path fill="#828282" d="M96.327,19.926v-1.471h0.887l0.364-0.364v-7.023l-0.364-0.362h-0.887V9.233h3.207    c0.809,0,0.93,0.464,0.93,0.889v0.322h0.102c0.321-0.363,1.37-1.411,2.965-1.411c2.4,0,3.107,1.452,3.107,3.226v5.832l0.364,0.364    h0.887v1.471h-5.326v-1.471h0.666l0.342-0.364v-5.347c0-0.605-0.06-1.432-1.331-1.432c-0.705,0-1.29,0.323-1.594,0.543v6.236    l0.343,0.364h0.667v1.471H96.327z"/>
		<path fill="#828282" d="M118.662,19.926h-3.208c-0.807,0-0.928-0.464-0.928-0.888v-0.322h-0.102    c-0.322,0.365-1.311,1.412-2.864,1.412c-2.321,0-3.066-1.473-3.066-3.208c0-1.896,1.392-3.006,3.571-3.006h2.279v-0.967    c0-1.171-0.061-2.019-1.795-2.019c-0.264,0-0.586,0.02-0.908,0.062l-0.303,0.302v1.412h-1.877V9.616    c0,0.02,1.695-0.584,4.177-0.584c2.886,0,3.772,1.553,3.772,3.43v5.629l0.363,0.364h0.888V19.926z M114.345,17.303v-1.755h-1.433    c-0.929,0-1.352,0.403-1.352,1.07c0,0.848,0.282,1.229,1.23,1.229C113.457,17.847,114.021,17.524,114.345,17.303z"/>
		<path fill="#828282" d="M128.429,20.127c-3.653,0-6.014-2.258-6.014-7.261c0-5.005,2.36-7.265,6.014-7.265    c3.65,0,6.012,2.259,6.012,7.265C134.44,17.869,132.079,20.127,128.429,20.127z M128.429,7.699c-2.038,0-2.623,1.674-2.623,5.166    c0,3.49,0.585,5.164,2.623,5.164c2.035,0,2.623-1.674,2.623-5.164C131.052,9.374,130.464,7.699,128.429,7.699z"/>
		<path fill="#828282" d="M143.761,19.321c-0.523,0.526-1.775,0.806-2.965,0.806c-2.725,0-5.125-1.573-5.125-5.406    s2.482-5.689,5.428-5.689c1.553,0,2.682,0.443,2.682,0.443v3.43h-1.875v-1.594l-0.363-0.344c-0.08-0.02-0.141-0.02-0.223-0.02    c-1.773,0-2.521,1.293-2.521,3.651c0,2.644,0.99,3.552,2.846,3.552c0.889,0,1.836-0.282,2.117-0.383V19.321z"/>
		<path fill="#828282" d="M153.003,19.321c-0.523,0.526-1.775,0.806-2.967,0.806c-2.723,0-5.125-1.573-5.125-5.406    s2.482-5.689,5.428-5.689c1.555,0,2.686,0.443,2.686,0.443v3.43h-1.877v-1.594l-0.365-0.344c-0.08-0.02-0.141-0.02-0.221-0.02    c-1.775,0-2.523,1.293-2.523,3.651c0,2.644,0.988,3.552,2.846,3.552c0.887,0,1.836-0.282,2.119-0.383V19.321z"/>
		<path fill="#828282" d="M157.522,9.233c0.807,0,0.928,0.464,0.928,0.889v7.969l0.344,0.364h0.908v1.471h-5.568v-1.471h0.887    l0.363-0.364v-7.023l-0.363-0.362h-0.887V9.233H157.522z M156.737,4.896c1.146,0,1.713,0.625,1.713,1.614    c0,0.987-0.566,1.614-1.713,1.614c-1.152,0-1.717-0.627-1.717-1.614C155.021,5.521,155.585,4.896,156.737,4.896z"/>
		<path fill="#828282" d="M168.196,19.926c-0.809,0-0.928-0.464-0.928-0.888v-0.322h-0.082c-0.484,0.665-1.553,1.412-2.723,1.412    c-2.1,0-3.854-1.613-3.854-5.447c0-3.833,1.754-5.648,3.854-5.648c1.008,0,2.078,0.604,2.621,1.25V7.033l-0.363-0.363h-0.887    V5.198h3.391c0.807,0,0.928,0.465,0.928,0.887V18.09l0.363,0.364h0.887v1.471H168.196z M167.085,17.141v-5.305    c-0.523-0.405-1.129-0.525-1.533-0.525c-1.35,0-1.814,0.947-1.814,3.269c0,2.319,0.465,3.247,1.814,3.247    C165.978,17.827,166.542,17.605,167.085,17.141z"/>
		<path fill="#828282" d="M180.706,15.103h-5.348c0.1,2.26,0.928,3.088,2.885,3.088c1.07,0,1.916-0.322,2.24-0.423v1.613    c-0.525,0.365-1.553,0.747-3.289,0.747c-2.602,0-4.924-1.531-4.924-5.326c0-3.913,2.1-5.769,4.621-5.769    c2.441,0,4.178,1.653,4.178,4.336v1.373L180.706,15.103z M175.38,13.691h2.783v-0.524c0-1.554-0.322-2.301-1.25-2.301    C175.964,10.867,175.499,11.875,175.38,13.691z"/>
		<path fill="#828282" d="M182.038,19.926v-1.471h0.889l0.361-0.364v-7.023l-0.361-0.362h-0.889V9.233h3.207    c0.807,0,0.928,0.464,0.928,0.889v0.322h0.102c0.322-0.363,1.371-1.411,2.967-1.411c2.4,0,3.105,1.452,3.105,3.226v5.832    l0.363,0.364h0.889v1.471h-5.326v-1.471h0.666l0.342-0.364v-5.347c0-0.605-0.061-1.432-1.332-1.432    c-0.705,0-1.289,0.323-1.594,0.543v6.236l0.344,0.364h0.666v1.471H182.038z"/>
		<path fill="#828282" d="M198.462,10.746v7.345l0.363,0.364h1.957v1.471c0,0-1.293,0.201-2.725,0.201    c-1.756,0-2.662-0.645-2.662-2.501v-6.88h-1.252V9.273h0.887l0.365-0.362l1.148-2.503h1.918v2.864h2.26v1.473H198.462z"/>
		<path fill="#828282" d="M209.882,15.103h-5.348c0.102,2.26,0.93,3.088,2.887,3.088c1.068,0,1.914-0.322,2.238-0.423v1.613    c-0.525,0.365-1.555,0.747-3.289,0.747c-2.602,0-4.922-1.531-4.922-5.326c0-3.913,2.096-5.769,4.619-5.769    c2.439,0,4.178,1.653,4.178,4.336v1.373L209.882,15.103z M204.554,13.691h2.785v-0.524c0-1.554-0.324-2.301-1.25-2.301    C205.14,10.867,204.675,11.875,204.554,13.691z"/>
	</g>
	<path fill="#DC0028" d="M15.229,19.767c4.039,3.92,5.614,10.518,6.312,13.118c0.404,1.522,1.972,2.425,3.492,2.018   c1.524-0.409,2.428-1.974,2.019-3.494c-0.696-2.605-2.634-9.101-1.093-14.515c1.376-5.457,6.301-10.12,8.203-12.023   c1.117-1.115,1.117-2.923,0-4.037c-1.114-1.112-2.922-1.112-4.034,0c-1.904,1.904-6.563,6.83-12.022,8.205l0,0   C12.69,10.578,6.194,8.642,3.593,7.947C2.068,7.538,0.505,8.442,0.1,9.962c-0.413,1.524,0.492,3.087,2.015,3.496   C4.717,14.155,11.309,15.725,15.229,19.767L15.229,19.767z"/>
</g>
</svg>