<?xml version="1.0" encoding="UTF-8"?>
<svg width="150px" height="150px" viewBox="0 0 150 150" version="1.1" xmlns="http://www.w3.org/2000/svg" xmlns:xlink="http://www.w3.org/1999/xlink">
    <!-- Generator: Sketch 47.1 (45422) - http://www.bohemiancoding.com/sketch -->
    <title>fiatc-s</title>
    <desc>Created with Sketch.</desc>
    <defs></defs>
    <g id="Page-1" stroke="none" stroke-width="1" fill="none" fill-rule="evenodd">
        <g id="fiatc-s">
            <g id="Page-1" transform="translate(10.000000, 57.000000)">
                <polygon id="Fill-1" fill="#FF0000" points="101.9898 0.4226 100.2658 8.2846 104.3698 23.5896 110.6718 23.5896 104.4878 0.4226"></polygon>
                <polygon id="Fill-2" fill="#FF0000" points="99.7305 10.6845 103.0615 23.5895 96.8775 23.5895"></polygon>
                <polygon id="Fill-3" fill="#FF0000" points="109.6038 0.4226 107.8788 8.2846 111.9828 23.5896 118.2858 23.5896 112.1008 0.4226"></polygon>
                <polygon id="Fill-4" fill="#002167" points="120.96 0.4226 122.628 6.5436 128.632 6.5436 130 0.4226"></polygon>
                <polygon id="Fill-5" fill="#002167" points="128.3379 7.7451 127.0269 13.9261 124.5889 13.9261 122.9239 7.7451"></polygon>
                <polygon id="Fill-6" fill="#002167" points="113.2902 0.4226 119.5932 23.5896 125.8962 23.5896 119.6522 0.4226"></polygon>
                <polygon id="Fill-7" fill="#002167" points="51.858 0.4226 50.905 4.6826 59.292 4.6826 55.069 23.7096 60.897 23.7096 65.12 4.6826 73.622 4.6826 74.577 0.4226"></polygon>
                <polygon id="Fill-8" fill="#002167" points="86.4081 -0.0004 85.5191 0.0616 84.6831 0.1216 83.8541 0.2406 83.0201 0.4226 82.1841 0.6026 81.4151 0.7826 80.6421 1.0216 79.8691 1.3236 79.1521 1.6226 77.7291 2.3426 76.4191 3.1816 75.2301 4.0846 74.1561 5.1036 73.2071 6.1846 72.3151 7.3226 71.6001 8.5826 70.9461 9.8466 70.7091 10.5036 70.5301 11.1666 70.3551 11.8856 70.1751 12.5456 70.0561 13.2666 69.9961 13.9256 69.9961 15.0656 70.0561 16.0866 70.2341 17.1076 70.5301 18.0066 70.9461 18.9086 71.4821 19.7496 72.0781 20.4676 72.7901 21.1886 73.5621 21.7906 74.4581 22.3296 75.4671 22.8096 76.5351 23.1696 77.7291 23.4706 78.9731 23.6516 80.2841 23.7706 81.7101 23.8296 83.1391 23.7706 84.4471 23.6516 85.6381 23.4706 86.7661 23.1696 87.8381 22.8696 88.9061 22.5096 89.9771 22.0896 91.1051 21.6096 92.2971 16.1476 90.9301 16.8076 89.6191 17.4076 88.3751 17.8876 87.1231 18.3066 85.9341 18.6076 84.8021 18.8486 83.7331 18.9676 82.6651 19.0286 82.1841 18.9676 81.7101 18.9086 81.1751 18.8486 80.6421 18.6686 80.1041 18.4876 79.5701 18.3066 79.0361 18.0066 78.4991 17.7086 78.0251 17.3476 77.6101 16.9876 77.1911 16.5076 76.8341 16.0286 76.5981 15.4856 76.3601 14.8866 76.3001 14.2876 76.2391 13.5666 76.3001 12.8466 76.4191 12.0666 76.5981 11.2886 76.8341 10.5656 77.1911 9.7866 77.5491 9.1246 78.0841 8.4056 78.6191 7.8046 79.2731 7.2036 80.0481 6.6646 80.9411 6.1846 81.8891 5.7616 83.0201 5.4646 84.2071 5.2236 85.5191 5.0426 87.0051 4.9846 87.7781 4.9846 88.5511 5.1036 89.3811 5.2236 90.2161 5.4646 91.0481 5.7616 91.9411 6.1846 92.8931 6.7236 93.8431 7.3846 94.9711 2.1026 93.8431 1.4416 92.7751 0.9616 91.7631 0.6026 90.8111 0.3616 89.8591 0.1806 88.9661 0.1216 87.3011 -0.0004"></polygon>
                <polygon id="Fill-9" fill="#002167" points="24.9165 0.4226 19.7445 23.7096 25.5725 23.7096 30.6875 0.4226"></polygon>
                <polygon id="Fill-10" fill="#002167" points="13.6782 0.4226 12.7272 4.7416 21.5282 4.7416 22.5382 0.4226"></polygon>
                <polygon id="Fill-11" fill="#002167" points="11.7754 9.4853 10.7644 13.8063 18.3764 13.8063 19.3274 9.4853"></polygon>
                <polygon id="Fill-12" fill="#002167" points="6.363 0.4226 1.249 23.7706 7.256 23.7706 12.429 0.4226"></polygon>
                <polygon id="Fill-13" fill="#002167" points="26.9388 23.7704 32.8878 23.7704 35.3828 19.0884 44.6628 19.0884 43.5918 14.8864 37.6448 14.8864 41.5698 7.5024 39.6658 0.3614"></polygon>
                <polygon id="Fill-14" fill="#002167" points="40.9743 0.3614 47.2783 23.7094 53.3433 23.7094 46.7433 0.3614"></polygon>
                <polygon id="Fill-15" fill="#002167" points="3.5676 28.0904 3.0926 28.0904 2.6166 28.2114 2.2006 28.3914 1.7836 28.6304 1.4266 28.9314 1.1896 29.2914 1.0116 29.6514 0.9506 30.0724 0.9506 30.5524 1.1296 31.0314 1.2496 31.3324 1.4856 31.5734 2.1406 32.2324 2.7946 32.7734 3.0926 33.1924 3.2116 33.4924 3.2116 33.7934 3.2116 33.9724 3.0926 34.1534 2.9746 34.3324 2.7946 34.4534 2.4376 34.6334 2.0226 34.6934 1.6056 34.6934 1.1896 34.5124 0.7736 34.3324 0.2376 34.0324 -0.0004 35.1144 0.4756 35.2944 0.8926 35.4744 1.3676 35.5934 1.8436 35.5934 2.3206 35.5934 2.7946 35.4744 3.1516 35.2944 3.5086 35.0534 3.8066 34.7534 4.0436 34.3934 4.2216 34.0324 4.2816 33.6734 4.2216 33.1924 4.1036 32.7114 3.9246 32.4134 3.6876 32.1714 3.0326 31.5114 2.4376 30.9714 2.0816 30.6124 2.0226 30.3714 1.9616 30.0724 2.0226 29.8324 2.0816 29.6514 2.2596 29.4714 2.4376 29.2914 2.6166 29.1724 2.8546 29.0514 3.1516 28.9914 3.4486 28.9914 3.8066 28.9914 4.1036 29.0514 4.4606 29.1724 4.7576 29.3514 4.9946 28.3914 4.2816 28.1514 3.9246 28.0904"></polygon>
                <polygon id="Fill-16" fill="#002167" points="20.3976 28.1516 18.6136 35.5346 22.8356 35.5346 23.0146 34.6336 19.8626 34.6336 20.3976 32.2326 23.1336 32.2326 23.3726 31.3326 20.6356 31.3326 21.1706 29.0516 24.2636 29.0516 24.4426 28.1516"></polygon>
                <polygon id="Fill-17" fill="#002167" points="43.2945 28.0904 42.6975 28.1514 42.1645 28.2704 41.6285 28.3914 41.1535 28.5714 40.6785 28.8114 40.2595 29.0514 39.9035 29.3514 39.5475 29.7134 39.1895 30.0124 38.9525 30.3714 38.7155 30.7334 38.5375 31.1524 38.4185 31.5114 38.2995 31.9324 38.2395 32.4134 38.2395 33.0724 38.3585 33.6734 38.5965 34.2134 38.8935 34.6934 39.3685 35.1144 39.9035 35.4124 40.4975 35.5344 41.2135 35.5934 41.8065 35.5934 42.4615 35.4744 43.0565 35.2334 43.7115 34.9934 44.3655 32.3524 42.2235 32.3524 42.0455 33.1334 43.1735 33.1334 42.8775 34.3934 42.4615 34.5124 42.1045 34.6334 41.7475 34.6934 41.3315 34.7534 40.9155 34.6934 40.4975 34.5734 40.1405 34.3324 39.7855 34.0934 39.5475 33.7324 39.4295 33.3134 39.3095 32.8334 39.3095 32.3524 39.4295 31.6924 39.7265 31.0924 40.0825 30.4914 40.6165 29.9504 40.9155 29.7134 41.2135 29.5324 41.5705 29.3514 41.9255 29.2324 42.3425 29.1114 42.7585 28.9914 43.6515 28.9314 45.0185 29.0514 45.1975 28.1514 43.8895 28.0904"></polygon>
                <polygon id="Fill-18" fill="#002167" points="64.7631 28.1516 63.8101 32.4126 63.5721 33.1926 63.3941 33.7326 63.2741 33.9136 63.0971 34.0936 62.8591 34.2726 62.6211 34.4536 62.3841 34.5726 62.0861 34.6336 61.7891 34.6936 61.4921 34.7526 61.1331 34.6936 60.8361 34.6336 60.5401 34.5126 60.3021 34.3316 60.1231 34.1536 60.0061 33.8516 59.9451 33.6126 59.9451 33.2536 59.9451 32.9536 61.0751 28.1516 60.0641 28.1516 58.9951 32.8926 58.9361 33.3126 58.9361 33.8516 58.9951 34.2726 59.1731 34.6336 59.4701 34.9936 59.8271 35.2936 60.3021 35.4736 60.7781 35.5936 61.3721 35.5936 61.9681 35.5936 62.5621 35.4126 63.0971 35.1736 63.5721 34.8726 63.9881 34.4536 64.3471 33.9726 64.5851 33.3736 64.8221 32.7116 65.8321 28.1516"></polygon>
                <path d="M80.8776,28.1516 L79.2146,35.5346 L80.2236,35.5346 L80.9976,32.2926 L81.4146,32.2926 L81.7096,32.2926 L81.9456,32.3526 L82.1276,32.4726 L82.3076,32.5926 L82.5466,33.0726 L82.9016,33.7936 L83.6146,35.5346 L84.6826,35.5346 L83.5546,32.7726 L83.3166,32.2926 L83.1396,32.1136 L83.0206,31.9326 L83.3756,31.8726 L83.6736,31.6926 L83.9696,31.5116 L84.2076,31.2706 L84.4466,31.0316 L84.5626,30.7916 L84.6826,30.4916 L84.7426,30.1316 L84.7426,29.7726 L84.6826,29.4126 L84.5066,29.0516 L84.3286,28.7506 L83.9696,28.5106 L83.5546,28.3316 L83.0206,28.2106 L82.3076,28.1516 L80.8776,28.1516 Z M81.7706,29.0516 L82.3666,29.0516 L82.6646,29.0516 L82.9606,29.1106 L83.1956,29.1726 L83.3756,29.2916 L83.4946,29.4706 L83.6146,29.6506 L83.6736,29.8316 L83.6736,30.1316 L83.6146,30.3716 L83.4946,30.6716 L83.3166,30.8526 L83.1396,31.0316 L82.8416,31.2116 L82.5466,31.3326 L82.1846,31.3926 L81.7706,31.3926 L81.2346,31.3926 L81.7706,29.0516 Z" id="Fill-19" fill="#002167"></path>
                <path d="M102.7035,28.0904 L102.3485,28.1514 L101.9305,28.2704 L101.5745,28.3914 L101.2775,28.6304 L100.9215,28.8714 L100.6265,29.1114 L100.3245,29.4714 L99.7885,30.1314 L99.4325,30.9124 L99.1365,31.6924 L99.0175,32.5324 L99.0175,33.1924 L99.0775,33.7324 L99.3135,34.2724 L99.6115,34.7534 L99.9695,35.1144 L100.3815,35.4124 L100.9215,35.5934 L101.4565,35.5934 L101.8705,35.5934 L102.2285,35.5344 L102.5835,35.4124 L102.9415,35.2944 L103.2405,35.1144 L103.5985,34.9334 L103.8945,34.6334 L104.1925,34.3324 L104.4885,34.0324 L104.7235,33.6734 L104.9625,33.3134 L105.1415,32.8924 L105.3215,32.5324 L105.4405,32.0534 L105.5595,31.1524 L105.5595,30.4914 L105.4975,29.8914 L105.3215,29.3514 L105.0225,28.9314 L104.6075,28.5714 L104.1925,28.2704 L103.7185,28.1514 L103.1215,28.0904 L102.7035,28.0904 Z M101.2165,34.6934 L100.8625,34.5734 L100.6265,34.3934 L100.3815,34.1534 L100.2055,33.8514 L100.0865,33.4924 L100.0255,33.1334 L100.0255,32.6524 L100.1455,31.9324 L100.3245,31.2714 L100.6265,30.6714 L100.9815,30.0724 L101.4565,29.5914 L101.9305,29.2324 L102.1685,29.1114 L102.4675,29.0514 L102.7635,28.9914 L102.9985,28.9314 L103.4195,28.9914 L103.7185,29.1114 L104.0135,29.2324 L104.1925,29.4714 L104.3695,29.7724 L104.4885,30.1314 L104.5475,30.5524 L104.5475,30.9714 L104.4285,31.7514 L104.2495,32.4134 L103.8945,33.0724 L103.5355,33.6124 L103.0615,34.0934 L102.5835,34.4534 L102.1095,34.6934 L101.5745,34.7534 L101.2165,34.6934 Z" id="Fill-20" fill="#002167"></path>
                <polygon id="Fill-21" fill="#002167" points="123.3387 28.0904 122.8647 28.0904 122.4497 28.2114 121.9717 28.3914 121.5567 28.6304 121.2587 28.9314 120.9597 29.2914 120.7847 29.6514 120.7237 30.0724 120.7237 30.5524 120.9037 31.0314 121.0197 31.3324 121.2587 31.5734 121.9147 32.2324 122.5657 32.7734 122.8647 33.1924 122.9837 33.4924 122.9837 33.7934 122.9837 33.9724 122.8647 34.1534 122.7437 34.3324 122.5657 34.4534 122.2097 34.6334 121.7937 34.6934 121.3817 34.6934 120.9597 34.5124 120.5447 34.3324 120.0677 34.0324 119.7727 35.1144 120.2467 35.2944 120.6637 35.4744 121.1387 35.5934 121.6157 35.5934 122.0907 35.5934 122.5657 35.4744 122.9237 35.2944 123.2797 35.0534 123.5777 34.7534 123.8167 34.3934 123.9947 34.0324 124.0547 33.6734 123.9947 33.1924 123.8787 32.7114 123.6957 32.4134 123.4587 32.1714 122.8047 31.5114 122.2097 30.9714 121.9147 30.6124 121.7937 30.3714 121.7367 30.0724 121.7937 29.8324 121.9147 29.6514 122.0347 29.4714 122.2097 29.2914 122.3897 29.1724 122.6277 29.0514 122.9237 28.9914 123.2217 28.9914 123.5777 28.9914 123.8787 29.0514 124.2347 29.1724 124.5297 29.3514 124.7687 28.3914 124.0547 28.1514 123.6957 28.0904"></polygon>
            </g>
        </g>
    </g>
</svg>