<?xml version="1.0" encoding="UTF-8"?>
<svg xmlns="http://www.w3.org/2000/svg" id="Layer_1" data-name="Layer 1" width="171mm" height="40mm" viewBox="0 0 484.72 113.39">
  <title>Fidelidade F</title>
  <g>
    <path d="M314.66,40.07a27.13,27.13,0,0,1-27.1,27.1H267.2l11.86-14.71H299l5.64-2.35,5.06-10-14.06-8.29-1.3-5-9.53-4.15L279.06,13,267.2,24.84V13h21.32C302.5,13,314.66,25.13,314.66,40.07Zm-188.72,0A27.13,27.13,0,0,1,98.83,67.17H78.55V13H98.83A27.15,27.15,0,0,1,125.94,40.08Zm-12,0A15.25,15.25,0,0,0,98.83,24.83H90.41V55.31h8.42A15.24,15.24,0,0,0,114,40.08Zm321.16,0A27.13,27.13,0,0,1,408,67.17H387.74V13H408A27.15,27.15,0,0,1,435.14,40.08Zm-12,0A15.25,15.25,0,0,0,408,24.83h-8.42V55.31H408A15.24,15.24,0,0,0,423.18,40.08ZM1.67,67.17H13.53V46h20V34.14h-20V24.83H35.89V13H1.67ZM173.86,24.83V13H139.65v54.2h34.21V55.31H151.51V46h20V34.14h-20V24.83Zm65,42.34h11.87V13H238.87ZM201.12,13H189.26v54.2h34.21V55.31H201.12ZM51.29,67.17H63.14V13H51.29ZM483.05,24.83V13H448.84v54.2h34.21V55.31H460.71V46h20V34.14h-20V24.83ZM342.08,13H354l21.64,54.2H363.73l-4.16-10.43H336.48l-4.17,10.45H320.45Zm-.86,31.91h13.6l-6.8-17Z" style="fill: #e42313"></path>
    <path d="M108.89,96.83a7.88,7.88,0,0,0,3.86,1.23c1,0,1.71-.4,1.71-1.32,0-1.13-1.15-1.23-2.73-1.75s-3.23-1.38-3.23-3.52,1.74-3.72,4.31-3.72a8.64,8.64,0,0,1,3.76.88V91.3a7.88,7.88,0,0,0-3.77-1.18c-.92,0-1.58.33-1.58,1.14,0,1.1,1.13,1.18,2.61,1.68,1.85.6,3.35,1.47,3.35,3.64,0,2.38-1.82,3.84-4.47,3.84a9,9,0,0,1-3.82-.88Zm15-8.89h7.59V90.3h-4.89v2.41h4.21V95h-4.21v2.92h5.08v2.35h-7.78Zm20.81-.19a7.92,7.92,0,0,1,3.76.94V91.4a6.76,6.76,0,0,0-3.71-1.22,3.94,3.94,0,1,0,0,7.88,4,4,0,0,0,1.5-.28V95.92h-2.13V93.69h4.75v5.7a8.93,8.93,0,0,1-4.17,1c-3.94,0-6.71-2.67-6.71-6.29A6.37,6.37,0,0,1,144.65,87.75Zm11.26,6.59v-6.4h2.7v6.3c0,2.58.57,3.74,2.71,3.74,2,0,2.7-1.08,2.7-3.73V87.94h2.59v6.33a7.08,7.08,0,0,1-1,4.18,5.89,5.89,0,0,1-8.83,0A7.15,7.15,0,0,1,155.91,94.34Zm17.91-6.4h3.85c2.81,0,5.3.77,5.3,3.7A3.41,3.41,0,0,1,180.48,95l3.46,5.19h-3.11l-3.11-4.85h-1.21v4.85h-2.69Zm4.06,5.41c1.52,0,2.39-.39,2.39-1.52s-.72-1.53-2.71-1.53h-1.05v3Zm11.57.73a6.42,6.42,0,1,1,6.41,6.34A6.26,6.26,0,0,1,189.45,94.08Zm10.12,0A3.71,3.71,0,1,0,195.86,98,3.74,3.74,0,0,0,199.57,94.08Zm9.4,2.75a7.85,7.85,0,0,0,3.86,1.23c1,0,1.71-.4,1.71-1.32,0-1.13-1.15-1.23-2.73-1.75s-3.22-1.38-3.22-3.52,1.72-3.72,4.31-3.72a8.46,8.46,0,0,1,3.74.88V91.3a7.75,7.75,0,0,0-3.76-1.18c-.92,0-1.58.33-1.58,1.14,0,1.1,1.13,1.18,2.62,1.68,1.85.6,3.33,1.47,3.33,3.64,0,2.38-1.81,3.84-4.46,3.84a9,9,0,0,1-3.82-.88ZM233,87.94h3.43c4.89,0,7.53,2.19,7.53,6.13,0,3.77-2.38,6.15-7.64,6.15H233Zm3.43,9.93c3.4,0,4.82-1.37,4.82-3.8a3.58,3.58,0,0,0-1.42-3,5.94,5.94,0,0,0-3.41-.74h-.73v7.57Zm14.26-9.93h7.58V90.3h-4.88v2.41h4.21V95h-4.21v2.92h5.07v2.35h-7.77Zm14.52,8.89a7.88,7.88,0,0,0,3.86,1.23c1,0,1.71-.4,1.71-1.32,0-1.13-1.15-1.23-2.73-1.75s-3.22-1.38-3.22-3.52,1.72-3.72,4.31-3.72a8.6,8.6,0,0,1,3.75.88V91.3a7.88,7.88,0,0,0-3.77-1.18c-.92,0-1.58.33-1.58,1.14,0,1.1,1.14,1.18,2.61,1.68,1.85.6,3.34,1.47,3.34,3.64,0,2.38-1.81,3.84-4.45,3.84a9,9,0,0,1-3.83-.88Zm14.95-8.89h3.45c4.89,0,7.51,2.19,7.51,6.13,0,3.77-2.38,6.15-7.63,6.15H280.2Zm3.45,9.93c3.39,0,4.81-1.37,4.81-3.8A3.61,3.61,0,0,0,287,91a5.94,5.94,0,0,0-3.41-.74h-.72v7.57Zm14.25-9.93h7.59V90.3h-4.9v2.41h4.22V95h-4.22v2.92h5.08v2.35H297.9Zm26.19,3.24-2.49.9V89.63l5.19-1.88v12.47h-2.7Zm11.1,5.52a3.08,3.08,0,0,1,2.06-3v0a2.6,2.6,0,0,1-1.67-2.51c0-2,1.85-3.43,4.24-3.43s4.24,1.46,4.24,3.43a2.58,2.58,0,0,1-1.68,2.51v0a3.09,3.09,0,0,1,2.08,3c0,2.2-2,3.72-4.64,3.72S335.19,98.9,335.19,96.7Zm6.5-.19a1.87,1.87,0,0,0-3.73,0,1.88,1.88,0,0,0,3.73,0Zm-.24-5.09a1.64,1.64,0,1,0-1.63,1.47A1.52,1.52,0,0,0,341.45,91.42Zm10.86,7.33a7.75,7.75,0,0,1-1.12-4.67,7.73,7.73,0,0,1,1.12-4.66,4.28,4.28,0,0,1,6.78,0,7.66,7.66,0,0,1,1.13,4.66,7.67,7.67,0,0,1-1.13,4.67,4.28,4.28,0,0,1-6.78,0Zm4.63-1.41c.41-.57.58-1.55.58-3.27a6,6,0,0,0-.58-3.24,1.45,1.45,0,0,0-1.23-.66,1.47,1.47,0,0,0-1.24.66,6.05,6.05,0,0,0-.58,3.27,5.83,5.83,0,0,0,.58,3.24,1.52,1.52,0,0,0,1.24.66A1.5,1.5,0,0,0,356.94,97.34Zm10-.64a3.07,3.07,0,0,1,2.06-3v0a2.58,2.58,0,0,1-1.68-2.51c0-2,1.85-3.43,4.25-3.43s4.24,1.46,4.24,3.43a2.6,2.6,0,0,1-1.69,2.51v0a3.07,3.07,0,0,1,2.08,3c0,2.2-2,3.72-4.63,3.72S367,98.9,367,96.7Zm6.5-.19a1.88,1.88,0,0,0-3.74,0,1.88,1.88,0,0,0,3.74,0Zm-.25-5.09a1.63,1.63,0,1,0-1.62,1.47A1.52,1.52,0,0,0,373.21,91.42Z" style="fill: #e42313"></path>
  </g>
</svg>
