<?xml version="1.0" encoding="utf-8"?>
<!-- Generator: Adobe Illustrator 17.0.0, SVG Export Plug-In . SVG Version: 6.00 Build 0)  -->
<!DOCTYPE svg PUBLIC "-//W3C//DTD SVG 1.1//EN" "http://www.w3.org/Graphics/SVG/1.1/DTD/svg11.dtd">
<svg version="1.1" id="Camada_1" xmlns="http://www.w3.org/2000/svg" xmlns:xlink="http://www.w3.org/1999/xlink" x="0px" y="0px"
	 width="550.82px" height="269.059px" viewBox="0 0 550.82 269.059" enable-background="new 0 0 550.82 269.059"
	 xml:space="preserve">
<g>
	<g>
		<path fill="#E40520" d="M275.413,0c-43.761,0-79.238,35.475-79.238,79.238c0,43.763,35.477,79.238,79.238,79.238
			c43.756,0,79.232-35.475,79.232-79.238C354.644,35.476,319.169,0,275.413,0z M275.413,150.929
			c-39.592,0-71.69-32.098-71.69-71.692c0-39.591,32.098-71.69,71.69-71.69c39.591,0,71.686,32.098,71.686,71.69
			C347.099,118.832,315.004,150.929,275.413,150.929z"/>
		<path fill="#E40520" d="M327.766,82.392c-0.004-0.624-0.073-1.165-0.149-1.596c-0.916-5.137-2.724-10.201-5.472-14.959
			c-2.763-4.783-6.841-9.343-10.857-12.717c-2.703-2.05-6.134-2.79-9.451-2.029c-1.261-3.664-4.273-6.733-7.65-8.202
			c-5.867-2.134-12.194-3.295-18.775-3.295c-6.548,0-12.844,1.149-18.687,3.263c-0.442,0.16-0.975,0.385-1.543,0.712
			c-2.998,1.561-5.302,4.303-6.283,7.617c-3.474-0.609-7.248,0.391-9.944,2.38c-4.016,3.373-7.518,7.489-10.279,12.272
			c-2.749,4.757-4.556,9.821-5.475,14.959c-0.075,0.432-0.143,0.972-0.148,1.596c-0.17,4.199,1.934,8.371,5.852,10.636
			c2.021,1.164,4.265,1.665,6.449,1.554l25.777-0.063c1.834,0.065,6.683,0.079,10.396,0.081v24.284h7.771V94.6
			c3.713-0.001,8.556-0.016,10.388-0.081l25.776,0.063c2.184,0.111,4.425-0.389,6.446-1.554
			C325.833,90.763,327.939,86.592,327.766,82.392z M263.198,85.768c-0.395,0.682-1.136,1.039-1.872,0.974l-26.224,0.067
			c-0.776,0.069-1.58-0.095-2.307-0.513c-1.367-0.791-2.085-2.274-1.963-3.752c-0.007-0.104-0.002-0.229,0.025-0.382
			c0.762-4.265,2.264-8.47,4.552-12.438c2.303-3.987,5.213-7.404,8.546-10.205c0.046-0.036,0.087-0.068,0.128-0.097
			c1.23-0.93,2.946-1.093,4.365-0.273c0.745,0.429,1.296,1.066,1.627,1.796l13.06,22.755
			C263.532,84.302,263.581,85.1,263.198,85.768z M277.576,85.487c-0.395,0.795-1.215,1.342-2.163,1.342
			c-0.968,0-1.804-0.571-2.188-1.394l-16.196-27.888c-0.549-0.786-0.869-1.742-0.869-2.773c0-1.943,1.141-3.62,2.788-4.397
			c0.104-0.073,0.242-0.143,0.422-0.208c5.01-1.813,10.415-2.8,16.044-2.8c5.662,0,11.09,0.997,16.12,2.827
			c0.067,0.024,0.128,0.051,0.182,0.076c1.748,0.735,2.974,2.465,2.974,4.479c0,1.061-0.339,2.042-0.914,2.841L277.576,85.487z
			 M318.028,86.295c-0.727,0.418-1.53,0.582-2.307,0.513l-26.223-0.067c-0.736,0.065-1.477-0.292-1.869-0.974
			c-0.387-0.668-0.336-1.467,0.063-2.068l13.056-22.755c0.33-0.731,0.883-1.367,1.627-1.796c1.419-0.82,3.138-0.658,4.365,0.273
			c0.04,0.029,0.083,0.061,0.127,0.097c3.334,2.8,6.246,6.217,8.546,10.205c2.291,3.967,3.791,8.172,4.552,12.438
			c0.025,0.153,0.034,0.278,0.024,0.382C320.113,84.021,319.396,85.504,318.028,86.295z"/>
	</g>
	<g>
		<polygon fill="#E40520" points="48.172,229.792 28.996,190.528 0,190.528 0,269.055 28.996,269.055 28.996,229.792 
			48.172,269.055 67.349,229.792 67.349,269.058 96.346,269.058 96.346,190.531 67.349,190.528 		"/>
		<path fill="#E40520" d="M128.205,190.528l-22.555,78.53h28.997l3.702-12.888h30.948L173,269.058h28.994l-22.551-78.53H128.205z
			 M142.05,243.282l11.772-40.994l11.775,40.994H142.05z"/>
		<path fill="#E40520" d="M265.506,190.565h-54.267v78.494h28.99v-32.708h25.276c12.642,0,22.891-10.25,22.891-22.895
			C288.397,200.814,278.148,190.565,265.506,190.565z M247.011,223.053h-6.289v-23.496h6.289c6.535,0,12.887,3.495,12.887,10.612
			C259.898,217.284,254.296,223.053,247.011,223.053z"/>
		<polygon fill="#E40520" points="298.453,269.058 327.446,269.058 327.446,236.272 375.542,236.272 375.542,223.385 
			327.446,223.385 327.446,203.415 375.542,203.415 375.542,190.528 298.453,190.528 		"/>
		<polygon fill="#E40520" points="550.82,203.413 550.82,190.526 473.722,190.526 473.722,269.055 550.82,269.055 550.82,256.168 
			502.72,256.168 502.72,236.271 550.82,236.271 550.82,223.384 502.72,223.384 502.72,203.413 		"/>
		<path fill="#E40520" d="M462.837,210.179c0-10.839-8.786-19.626-19.626-19.626h-25.318h-32.206v39.252v39.253l29.48-0.003v-32.51
			h6.285c7.106,0,12.886,5.77,12.886,12.884c0,0.211-0.006,0.422-0.017,0.632v18.993h8.891h19.626V249.43
			c0-0.215,0.006-0.43,0-0.646c-0.343-10.54-9.003-18.979-19.626-18.979C454.051,229.805,462.837,221.018,462.837,210.179z
			 M421.452,223.06h-6.285v-23.492h6.285c6.37,0,12.886,3.494,12.886,10.61C434.338,217.294,428.572,223.06,421.452,223.06z"/>
	</g>
</g>
</svg>
