<?xml version="1.0" encoding="utf-8"?>
<!-- Generator: Adobe Illustrator 16.0.0, SVG Export Plug-In . SVG Version: 6.00 Build 0)  -->
<!DOCTYPE svg PUBLIC "-//W3C//DTD SVG 1.1//EN" "http://www.w3.org/Graphics/SVG/1.1/DTD/svg11.dtd">
<svg version="1.1" id="Capa_1" xmlns="http://www.w3.org/2000/svg" xmlns:xlink="http://www.w3.org/1999/xlink" x="0px" y="0px"
	 width="720px" height="250px" viewBox="-2.618 40.437 720 250" enable-background="new -2.618 40.437 720 250"
	 xml:space="preserve">
<g>
	<g>
		<polygon fill="#97182B" points="221.148,146.522 142.566,183.162 142.566,80.258 221.148,43.625 		"/>
		<polygon fill="#E32213" points="221.148,146.522 299.726,183.162 299.726,80.258 221.148,43.625 		"/>
		<polygon fill="#97182B" points="378.303,146.522 299.726,183.162 299.726,80.258 378.303,43.625 		"/>
		<polygon fill="#E32213" points="378.303,146.522 456.876,183.162 456.876,80.258 378.303,43.625 		"/>
	</g>
	<g>
		<path fill="#97182B" d="M116.893,222.456h5.844v26.952h-6.716v-16.837l-7.268,8.471h-1.03l-7.269-8.471v16.837h-6.72v-26.952h5.85
			l8.652,10.01L116.893,222.456z"/>
		<path fill="#97182B" d="M155.021,222.456v15.298c0,8.931-6.083,12.008-13.476,12.008c-7.821,0-13.472-3.625-13.472-11.973v-15.333
			h6.716v15.492c0,3.873,2.807,6.208,6.676,6.208c3.559,0,6.84-1.858,6.84-6.686v-15.015H155.021z"/>
		<path fill="#97182B" d="M184.771,227.407h-9.762v22.001h-6.715v-22.001h-9.763v-4.951h26.24V227.407z"/>
		<path fill="#97182B" d="M215.157,222.456v15.298c0,8.931-6.083,12.008-13.476,12.008c-7.821,0-13.471-3.625-13.471-11.973v-15.333
			h6.716v15.492c0,3.873,2.807,6.208,6.676,6.208c3.559,0,6.839-1.858,6.839-6.686v-15.015H215.157z"/>
		<path fill="#97182B" d="M246.531,249.408h-7.229l-2.215-5.324h-12.052l-2.012,5.324h-7.113l10.867-26.952h7.781L246.531,249.408z
			 M230.764,228.911l-3.948,10.469h8.294L230.764,228.911z"/>
		<path fill="#97182B" d="M271.7,222.456c9.837,0,14.896,6.137,14.896,13.528c0,7.746-4.898,13.424-15.646,13.424h-11.146v-26.952
			H271.7z M266.523,244.474h4.386c6.756,0,8.772-4.58,8.772-8.541c0-4.615-2.489-8.524-8.852-8.524h-4.306V244.474L266.523,244.474z
			"/>
		<path fill="#97182B" d="M311.088,249.408H291.21v-26.952h19.599v4.951h-12.883v5.642h12.291v4.952h-12.291v6.473h13.161
			L311.088,249.408L311.088,249.408z"/>
		<path fill="#97182B" d="M338.708,222.456c6.163,0,8.931,4.315,8.931,7.994c0,3.783-2.688,8.135-8.892,8.135h-5.336v10.823h-6.716
			v-26.952H338.708z M333.411,233.65h3.122c3.082,0,4.191-1.113,4.191-3.13c0-2.281-1.304-3.113-4.942-3.113h-2.369L333.411,233.65
			L333.411,233.65z"/>
		<path fill="#97182B" d="M363.997,222.456c5.527,0,8.807,3.713,8.807,7.746c0,2.971-1.538,5.183-4.615,6.596
			c2.758,1.396,3.589,4.704,7.382,12.61h-7.382c-2.893-5.767-3.962-10.947-7.588-10.947h-1.944v10.947h-6.716v-26.952H363.997z
			 M358.656,233.527h3.555c1.857,0,3.679-0.797,3.679-3.077c0-2.017-1.309-3.043-3.838-3.043h-3.396V233.527z"/>
		<path fill="#97182B" d="M392.009,249.762c-9.886,0-15.458-6.95-15.458-13.83c0-6.508,5.307-13.829,15.458-13.829
			c10.15,0,15.403,7.356,15.403,13.829C407.413,242.848,401.682,249.762,392.009,249.762z M392.009,227.726
			c-5.138,0-8.542,3.272-8.542,8.206c0,4.952,3.404,8.225,8.542,8.225c5.093,0,8.488-3.272,8.488-8.225
			C400.498,230.998,397.102,227.726,392.009,227.726z"/>
		<path fill="#97182B" d="M424.177,222.456c6.155,0,8.931,4.315,8.931,7.994c0,3.783-2.688,8.135-8.896,8.135h-5.342v10.823h-6.709
			v-26.952H424.177z M418.873,233.65h3.131c3.077,0,4.19-1.113,4.19-3.13c0-2.281-1.309-3.113-4.951-3.113h-2.37V233.65z"/>
		<path fill="#97182B" d="M444.355,249.408h-6.712v-26.952h6.712V249.408z"/>
		<path fill="#97182B" d="M470.123,249.408h-19.878v-26.952h19.604v4.951h-12.883v5.642h12.289v4.952h-12.289v6.473h13.156
			L470.123,249.408L470.123,249.408z"/>
		<path fill="#97182B" d="M499.206,227.407h-9.763v22.001h-6.71v-22.001h-9.763v-4.951h26.235V227.407L499.206,227.407z"/>
		<path fill="#97182B" d="M525.874,249.408h-7.224l-2.221-5.324h-12.052l-2.015,5.324h-7.109l10.866-26.952h7.781L525.874,249.408z
			 M510.109,228.911l-3.945,10.469h8.295L510.109,228.911z"/>
		<path fill="#97182B" d="M540.649,222.456c5.534,0,8.816,3.713,8.816,7.746c0,2.971-1.539,5.183-4.624,6.596
			c2.768,1.396,3.598,4.704,7.392,12.61h-7.392c-2.884-5.767-3.943-10.947-7.588-10.947h-1.927v10.947h-6.721v-26.952H540.649z
			 M535.327,233.527h3.555c1.856,0,3.67-0.797,3.67-3.077c0-2.017-1.3-3.043-3.829-3.043h-3.396V233.527z"/>
		<path fill="#97182B" d="M561.906,249.408h-6.721v-26.952h6.721V249.408z"/>
		<path fill="#97182B" d="M582.022,249.762c-9.877,0-15.448-6.95-15.448-13.83c0-6.508,5.288-13.829,15.448-13.829
			s15.412,7.356,15.412,13.829C597.434,242.848,591.705,249.762,582.022,249.762z M582.022,227.726
			c-5.138,0-8.533,3.272-8.533,8.206c0,4.952,3.396,8.225,8.533,8.225c5.102,0,8.497-3.272,8.497-8.225
			C590.519,230.998,587.124,227.726,582.022,227.726z"/>
		<path fill="#97182B" d="M620,229.459c-3.917-1.733-6.25-2.404-8.54-2.404c-2.405,0-3.952,0.867-3.952,2.211
			c0,4.066,13.713,2.918,13.713,12.326c0,5.182-4.351,8.17-10.354,8.17c-4.704,0-7.03-1.221-9.718-2.6v-5.817
			c3.873,2.582,6.242,3.483,9.204,3.483c2.573,0,3.954-0.901,3.954-2.493c0-4.421-13.715-2.795-13.715-12.486
			c0-4.651,4.031-7.745,10.274-7.745c2.998,0,5.729,0.636,9.134,2.104V229.459L620,229.459z"/>
	</g>
	<g>
		<path fill="#97182B" d="M121.446,273.018c-0.132-0.194-0.283-0.39-0.433-0.584c-0.783-0.937-1.521-1.097-2.126-1.097
			c-0.327,0.035-0.61,0.071-0.911,0.213c-0.977,0.424-1.15,1.397-1.15,1.75c0,1.062,1.018,1.486,1.234,1.61l2.799,1.396
			c0.433,0.247,0.783,0.442,1.171,0.743c1.477,1.167,1.649,2.582,1.649,3.324c0,0.336-0.022,0.884-0.306,1.662
			c-0.755,1.98-2.515,3.183-4.642,3.183c-0.606,0-2.083-0.106-3.382-1.22c-1.038-0.92-1.432-1.945-1.844-3.219l2.061-0.459
			c0.283,0.743,0.5,1.149,0.694,1.45c0.565,0.831,1.499,1.433,2.56,1.433c0.499,0,0.932-0.141,1.083-0.213
			c0.933-0.407,1.543-1.361,1.543-2.388c0-1.185-0.76-1.927-1.76-2.476c-1.039-0.565-2.189-0.83-3.188-1.468
			c-1.649-1.043-1.91-2.476-1.91-3.254c0-0.459,0.111-1.609,0.955-2.563c0.455-0.514,1.561-1.451,3.404-1.451
			c0.565,0,1.866,0.107,3.082,1.062c0.565,0.442,0.911,0.884,1.344,1.45L121.446,273.018z"/>
		<path fill="#97182B" d="M134.909,269.692v2.157h-6.159v3.697h6.119v2.068h-6.141v5.252h6.097v2.104h-8.285v-15.279H134.909
			L134.909,269.692z"/>
		<path fill="#97182B" d="M149.158,273.919c-0.283-0.282-0.566-0.548-0.849-0.813c-0.518-0.46-1.906-1.627-3.989-1.627
			c-0.676,0-2.064,0.124-3.453,1.272c-1.972,1.61-2.167,3.784-2.167,4.616c0,3.183,2.366,5.801,5.575,5.801
			c0.628,0,2.126-0.106,3.448-1.344c0.5-0.478,0.889-1.044,1.128-1.697c0.128-0.301,0.172-0.495,0.238-1.097h-3.82v-2.157
			l6.269,0.018c0,0.335,0.044,1.131-0.106,2.052c-0.11,0.725-0.477,2.492-1.932,4.103c-0.8,0.866-2.365,2.175-5.292,2.175
			c-0.889,0-3.232-0.124-5.142-1.822c-1.666-1.484-2.582-3.73-2.582-5.994c0-0.956,0.155-3.112,1.76-5.129
			c2.104-2.6,4.965-2.883,6.136-2.883c1,0,2.971,0.178,4.992,1.786c0.455,0.337,0.845,0.762,1.255,1.169L149.158,273.919z"/>
		<path fill="#97182B" d="M155.98,269.709v9.038c0.022,0.336,0.022,0.672,0.066,1.008c0.11,1.15,0.411,2.158,1.41,2.812
			c0.327,0.213,1.021,0.583,2.016,0.583c0.849,0,1.455-0.282,1.738-0.459c1.411-0.866,1.494-2.388,1.539-3.854v-9.127h2.298v9.426
			c0,0.231-0.021,0.496-0.021,0.743c-0.022,0.424-0.106,1.857-0.911,3.023c-1.039,1.521-2.993,2.3-4.771,2.3
			c-2.255,0-4.492-1.256-5.27-3.484c-0.283-0.777-0.283-1.574-0.305-2.404v-9.604H155.98L155.98,269.709z"/>
		<path fill="#97182B" d="M176.473,284.972l-4.66-6.526h-0.933v6.544h-2.148v-15.315h4.47c1.061,0.07,2.082,0.124,2.905,0.761
			c1.105,0.797,1.583,2.193,1.583,3.52c0,0.637-0.128,2.688-1.91,3.785c-0.345,0.229-0.628,0.336-1.388,0.548
			c0.716,1.025,1.41,2.034,2.148,3.042c0.544,0.76,1.105,1.486,1.649,2.246c0.327,0.46,0.628,0.938,0.933,1.396H176.473
			L176.473,284.972z M170.919,271.778v4.793h1.715c1.043-0.088,1.821-0.194,2.366-1.061c0.15-0.248,0.433-0.761,0.433-1.557
			c0-0.266-0.044-1.22-0.738-1.715c-0.5-0.372-1.083-0.425-1.649-0.46L170.919,271.778L170.919,271.778z"/>
		<path fill="#97182B" d="M182.326,271.867c1.494-1.592,3.62-2.458,5.792-2.458c2.56,0,4.359,1.22,5.076,1.785
			c1.821,1.451,2.927,3.749,2.927,6.138c0,0.512-0.062,1.662-0.628,2.97c-1.278,3.042-4.165,4.864-7.375,4.864
			c-2.583,0-4.425-1.256-5.142-1.839c-1.844-1.504-2.882-3.82-2.82-6.261C180.221,275.156,181.004,273.246,182.326,271.867z
			 M183.581,280.852c1.087,1.362,2.799,2.157,4.536,2.157c0.65,0,2.166-0.106,3.577-1.185c1.366-1.062,2.215-2.742,2.215-4.492
			c0-1.079-0.327-1.945-0.478-2.3c-0.933-2.122-3.038-3.413-5.314-3.413c-1.282,0-2.56,0.425-3.559,1.204
			c-0.628,0.477-2.083,1.892-2.189,4.209C182.304,278.376,182.737,279.79,183.581,280.852z"/>
		<path fill="#97182B" d="M205.528,273.018c-0.132-0.194-0.283-0.39-0.433-0.584c-0.783-0.937-1.521-1.097-2.126-1.097
			c-0.327,0.035-0.611,0.071-0.911,0.213c-0.978,0.424-1.15,1.397-1.15,1.75c0,1.062,1.017,1.486,1.233,1.61l2.799,1.396
			c0.433,0.247,0.783,0.442,1.171,0.743c1.476,1.167,1.649,2.582,1.649,3.324c0,0.336-0.022,0.884-0.305,1.662
			c-0.756,1.98-2.515,3.183-4.642,3.183c-0.606,0-2.083-0.106-3.382-1.22c-1.039-0.92-1.433-1.945-1.844-3.219l2.061-0.459
			c0.283,0.743,0.5,1.149,0.694,1.45c0.565,0.831,1.499,1.433,2.56,1.433c0.5,0,0.932-0.141,1.083-0.213
			c0.932-0.407,1.542-1.361,1.542-2.388c0-1.185-0.76-1.927-1.759-2.476c-1.039-0.565-2.189-0.83-3.188-1.468
			c-1.649-1.043-1.91-2.476-1.91-3.254c0-0.459,0.11-1.609,0.955-2.563c0.455-0.514,1.56-1.451,3.404-1.451
			c0.565,0,1.865,0.107,3.082,1.062c0.565,0.442,0.911,0.884,1.343,1.45L205.528,273.018z"/>
		<path fill="#97182B" d="M217.97,269.657v15.263h-2.255v-15.263H217.97z"/>
		<path fill="#97182B" d="M233.086,269.709h2.237v15.864c-1.738-1.77-3.471-3.537-5.231-5.287c-1.039-1.044-2.06-2.087-3.077-3.149
			c-1.065-1.113-2.083-2.228-3.104-3.377c0.044,0.726,0.111,1.467,0.128,2.193c0.022,0.636,0.022,1.291,0.044,1.945v7.073h-2.255
			v-16.287c2.148,2.122,4.293,4.245,6.397,6.384c1.693,1.751,3.365,3.501,5.013,5.234c-0.044-0.478-0.11-0.973-0.11-1.45
			c-0.022-0.442-0.022-0.849-0.044-1.291v-7.853H233.086z"/>
		<path fill="#97182B" d="M246.442,280.657l5.292-12.008l3.038,16.375l-2.233-0.017c-0.238-1.433-0.459-2.866-0.738-4.263
			c-0.216-1.113-0.433-2.229-0.588-3.325c-0.106-0.796-0.172-1.626-0.239-2.458l-4.642,10.823l-4.382-10.734
			c-0.084,0.92-0.172,1.804-0.322,2.688c-0.195,1.221-0.478,2.439-0.717,3.678c-0.238,1.186-0.478,2.388-0.694,3.573h-2.216
			l3.365-16.447L246.442,280.657z"/>
		<path fill="#97182B" d="M258.278,271.867c1.494-1.592,3.621-2.458,5.791-2.458c2.56,0,4.359,1.22,5.076,1.785
			c1.822,1.451,2.928,3.749,2.928,6.138c0,0.512-0.062,1.662-0.628,2.97c-1.282,3.042-4.165,4.864-7.375,4.864
			c-2.582,0-4.426-1.256-5.142-1.839c-1.844-1.504-2.882-3.82-2.82-6.261C256.173,275.156,256.955,273.246,258.278,271.867z
			 M259.533,280.852c1.088,1.362,2.798,2.157,4.536,2.157c0.65,0,2.167-0.106,3.577-1.185c1.366-1.062,2.215-2.742,2.215-4.492
			c0-1.079-0.327-1.945-0.478-2.3c-0.933-2.122-3.038-3.413-5.314-3.413c-1.282,0-2.56,0.425-3.559,1.204
			c-0.628,0.477-2.083,1.892-2.189,4.209C258.255,278.376,258.689,279.79,259.533,280.852z"/>
		<path fill="#97182B" d="M274.472,284.989v-15.28c0.866-0.017,1.755-0.017,2.648,0c0.478,0,0.95,0,1.406,0.053
			c0.521,0.019,1.76,0.124,2.799,1.221c0.716,0.726,1.11,1.769,1.11,2.795c0,0.796-0.261,1.733-0.783,2.335
			c-0.217,0.248-0.411,0.389-0.911,0.725c0.411,0.124,0.911,0.283,1.277,0.513c0.61,0.391,1.543,1.38,1.543,3.236
			c0,0.778-0.132,2.583-1.998,3.696c-1.189,0.708-2.232,0.708-4.837,0.708L274.472,284.989L274.472,284.989z M276.643,283.045
			c0.495-0.036,0.973-0.036,1.494-0.036c0.133,0,1.021,0.036,1.627-0.142c0.588-0.159,1.649-0.637,1.649-2.245
			c0-1.433-1.021-2.034-1.539-2.177c-0.477-0.176-1.11-0.159-1.238-0.159c-0.672,0-1.344,0-1.993,0.018L276.643,283.045
			L276.643,283.045z M276.683,276.377h0.871c0.911-0.035,1.649-0.159,2.21-0.866c0.151-0.195,0.522-0.778,0.522-1.539
			c0-0.266-0.044-0.85-0.434-1.361c-0.588-0.797-1.411-0.832-3.188-0.797L276.683,276.377z"/>
		<path fill="#97182B" d="M288.718,269.657v15.263h-2.255v-15.263H288.718z"/>
		<path fill="#97182B" d="M294.787,269.692v13.229h4.665v2.069h-6.875v-15.298H294.787L294.787,269.692z"/>
		<path fill="#97182B" d="M304.085,269.657v15.263h-2.255v-15.263H304.085z"/>
		<path fill="#97182B" d="M320.417,284.989h-2.405l-1.543-3.714h-6.592l-1.76,3.696h-2.404l7.679-16.182L320.417,284.989z
			 M310.787,279.312h4.859l-2.343-5.394L310.787,279.312z"/>
		<path fill="#97182B" d="M329.932,284.972l-4.66-6.526h-0.933v6.544h-2.148v-15.315h4.47c1.061,0.07,2.082,0.124,2.905,0.761
			c1.105,0.797,1.583,2.193,1.583,3.52c0,0.637-0.128,2.688-1.91,3.785c-0.345,0.229-0.628,0.336-1.388,0.548
			c0.716,1.025,1.41,2.034,2.148,3.042c0.544,0.76,1.105,1.486,1.649,2.246c0.327,0.46,0.628,0.938,0.934,1.396H329.932
			L329.932,284.972z M324.378,271.778v4.793h1.715c1.043-0.088,1.821-0.194,2.365-1.061c0.15-0.248,0.433-0.761,0.433-1.557
			c0-0.266-0.044-1.22-0.738-1.715c-0.5-0.372-1.083-0.425-1.649-0.46L324.378,271.778L324.378,271.778z"/>
		<path fill="#97182B" d="M336.842,269.657v15.263h-2.255v-15.263H336.842z"/>
		<path fill="#97182B" d="M341.439,271.867c1.494-1.592,3.621-2.458,5.792-2.458c2.56,0,4.359,1.22,5.076,1.785
			c1.821,1.451,2.927,3.749,2.927,6.138c0,0.512-0.062,1.662-0.628,2.97c-1.282,3.042-4.165,4.864-7.375,4.864
			c-2.583,0-4.425-1.256-5.142-1.839c-1.844-1.504-2.882-3.82-2.821-6.261C339.335,275.156,340.118,273.246,341.439,271.867z
			 M342.695,280.852c1.088,1.362,2.799,2.157,4.536,2.157c0.649,0,2.166-0.106,3.577-1.185c1.365-1.062,2.214-2.742,2.214-4.492
			c0-1.079-0.327-1.945-0.478-2.3c-0.933-2.122-3.038-3.413-5.314-3.413c-1.282,0-2.56,0.425-3.559,1.204
			c-0.628,0.477-2.083,1.892-2.189,4.209C341.417,278.376,341.851,279.79,342.695,280.852z"/>
		<path fill="#97182B" d="M364.642,273.018c-0.134-0.194-0.283-0.39-0.434-0.584c-0.777-0.937-1.52-1.097-2.122-1.097
			c-0.335,0.035-0.618,0.071-0.921,0.213c-0.973,0.424-1.147,1.397-1.147,1.75c0,1.062,1.024,1.486,1.237,1.61l2.795,1.396
			c0.441,0.247,0.787,0.442,1.176,0.743c1.477,1.167,1.653,2.582,1.653,3.324c0,0.336-0.026,0.884-0.31,1.662
			c-0.752,1.98-2.521,3.183-4.643,3.183c-0.601,0-2.086-0.106-3.378-1.22c-1.043-0.92-1.432-1.945-1.848-3.219l2.061-0.459
			c0.282,0.743,0.494,1.149,0.688,1.45c0.567,0.831,1.504,1.433,2.564,1.433c0.496,0,0.938-0.141,1.08-0.213
			c0.937-0.407,1.547-1.361,1.547-2.388c0-1.185-0.76-1.927-1.76-2.476c-1.043-0.565-2.192-0.83-3.183-1.468
			c-1.653-1.043-1.91-2.476-1.91-3.254c0-0.459,0.106-1.609,0.956-2.563c0.451-0.514,1.555-1.451,3.404-1.451
			c0.557,0,1.865,0.107,3.076,1.062c0.565,0.442,0.911,0.884,1.344,1.45L364.642,273.018z"/>
		<path fill="#97182B" d="M374.855,284.901v-15.228c3.113-0.088,3.872-0.017,5.658,0.124c1.345,0.266,1.804,0.425,2.449,0.742
			c2.449,1.256,3.644,3.838,3.644,6.562c0,0.885-0.15,3.307-1.883,5.323c-0.867,1.044-1.734,1.486-2.194,1.681
			c-0.938,0.423-1.838,0.601-3.969,0.796H374.855L374.855,284.901z M376.995,282.886c0.521,0,1.044,0.017,1.565-0.018
			c2.104-0.089,3.881-0.726,5.03-2.547c0.328-0.478,0.956-1.628,0.956-3.219c0-2.582-1.646-3.962-2.405-4.457
			c-1.538-0.972-3.343-0.901-5.146-0.831V282.886z"/>
		<path fill="#97182B" d="M397.553,269.692v2.157h-6.163v3.697h6.119v2.068h-6.137v5.252h6.102v2.104h-8.294v-15.279H397.553
			L397.553,269.692z"/>
		<path fill="#97182B" d="M406.706,273.018c-0.134-0.194-0.283-0.39-0.433-0.584c-0.787-0.937-1.521-1.097-2.131-1.097
			c-0.32,0.035-0.603,0.071-0.902,0.213c-0.982,0.424-1.15,1.397-1.15,1.75c0,1.062,1.009,1.486,1.229,1.61l2.804,1.396
			c0.425,0.247,0.777,0.442,1.166,0.743c1.478,1.167,1.646,2.582,1.646,3.324c0,0.336-0.018,0.884-0.301,1.662
			c-0.761,1.98-2.512,3.183-4.643,3.183c-0.61,0-2.076-0.106-3.387-1.22c-1.034-0.92-1.432-1.945-1.839-3.219l2.061-0.459
			c0.283,0.743,0.504,1.149,0.699,1.45c0.565,0.831,1.493,1.433,2.556,1.433c0.504,0,0.928-0.141,1.086-0.213
			c0.929-0.407,1.54-1.361,1.54-2.388c0-1.185-0.763-1.927-1.761-2.476c-1.035-0.565-2.183-0.83-3.192-1.468
			c-1.645-1.043-1.909-2.476-1.909-3.254c0-0.459,0.114-1.609,0.955-2.563c0.46-0.514,1.565-1.451,3.413-1.451
			c0.565,0,1.856,0.107,3.077,1.062c0.565,0.442,0.91,0.884,1.344,1.45L406.706,273.018z"/>
		<path fill="#97182B" d="M411.709,284.901v-15.228c3.121-0.088,3.882-0.017,5.659,0.124c1.344,0.266,1.803,0.425,2.458,0.742
			c2.439,1.256,3.644,3.838,3.644,6.562c0,0.885-0.158,3.307-1.893,5.323c-0.865,1.044-1.733,1.486-2.192,1.681
			c-0.929,0.423-1.839,0.601-3.963,0.796H411.709L411.709,284.901z M413.86,282.886c0.521,0,1.034,0.017,1.563-0.018
			c2.105-0.089,3.872-0.726,5.023-2.547c0.336-0.478,0.954-1.628,0.954-3.219c0-2.582-1.645-3.962-2.403-4.457
			c-1.54-0.972-3.343-0.901-5.138-0.831V282.886L413.86,282.886z"/>
		<path fill="#97182B" d="M434.417,269.692v2.157h-6.164v3.697h6.12v2.068h-6.145v5.252h6.101v2.104h-8.286v-15.279H434.417
			L434.417,269.692z"/>
		<path fill="#97182B" d="M447.892,269.674v15.298h-2.185v-13.21h-2.624l1.132-2.087L447.892,269.674L447.892,269.674z"/>
		<path fill="#97182B" d="M452.987,276.253c-0.337-0.372-0.946-1.221-0.946-2.529c0-0.335,0.017-0.919,0.361-1.68
			c0.726-1.645,2.299-2.652,4.04-2.652c1.495,0.018,2.521,0.726,2.927,1.08c0.479,0.389,1.451,1.485,1.451,3.253
			c0,0.938-0.281,1.894-0.91,2.494c-0.327,0.317-0.778,0.565-1.168,0.795c0.453,0.213,0.734,0.354,0.912,0.514
			c0.494,0.39,1.343,1.361,1.343,3.06c0,0.866-0.238,1.538-0.37,1.804c-0.717,1.732-2.361,2.758-4.246,2.758
			c-0.893,0-1.52-0.229-1.848-0.354c-1.76-0.725-2.837-2.316-2.837-4.245c0-0.265,0-0.796,0.211-1.415
			c0.354-1.113,0.973-1.591,1.909-2.263C453.517,276.678,453.235,276.483,452.987,276.253z M453.862,281.328
			c0.327,1.097,1.317,1.839,2.466,1.839c0.195,0,0.655-0.018,1.133-0.266c0.885-0.406,1.477-1.326,1.477-2.334
			c0-1.45-1.149-2.599-2.609-2.599c-0.168,0-0.513,0.018-0.955,0.159c-1.167,0.441-1.486,1.485-1.574,1.91
			C453.746,280.303,453.712,280.745,453.862,281.328z M454.533,275.227c0.416,0.566,1.104,0.921,1.795,0.921
			c0.31,0,0.611-0.071,0.895-0.177c0.928-0.371,1.601-1.221,1.601-2.21c0-1.327-1.097-2.37-2.361-2.37
			c-0.15,0-0.611,0.018-0.999,0.195c-1.044,0.459-1.301,1.362-1.363,1.75C454.029,273.637,453.967,274.521,454.533,275.227z"/>
		<path fill="#97182B" d="M467.558,275.988c0.655-0.018,0.83-0.018,1.176-0.107c1.018-0.265,1.601-1.096,1.601-2.121
			c0-0.23-0.017-0.638-0.23-1.097c-0.53-1.113-1.716-1.255-2.104-1.255c-0.76,0-1.202,0.3-1.433,0.494
			c-0.52,0.46-0.699,0.956-0.893,1.61h-2.166c0.149-1.186,0.299-1.963,1.21-2.812c1.193-1.148,2.671-1.255,3.21-1.255
			c1.194,0.017,2.477,0.423,3.36,1.22c1.113,1.026,1.221,2.423,1.221,2.935c0,0.85-0.266,1.716-0.761,2.389
			c-0.301,0.39-0.653,0.672-1.025,0.989c0.071,0.054,0.565,0.318,0.876,0.566c1.122,0.92,1.193,2.583,1.193,3.006
			c0,0.318-0.045,1.009-0.354,1.822c-0.407,1.025-1.627,2.847-4.467,2.847c-0.75,0-1.388-0.124-1.645-0.211
			c-0.592-0.142-1.865-0.567-2.626-2.122c-0.3-0.638-0.434-1.238-0.565-1.928l2.264,0.018c0.106,0.53,0.169,0.689,0.274,0.955
			c0.433,0.849,1.3,1.309,2.236,1.309c0.346,0,1.194-0.071,1.911-0.707c0.3-0.283,0.849-0.885,0.849-2.017
			c0-1.149-0.638-2.122-1.715-2.512c-0.37-0.124-0.654-0.159-1.416-0.194L467.558,275.988z"/>
		<path fill="#97182B" d="M478.621,269.639h5.881v1.91h-4.476l-0.84,3.13c0.345-0.018,0.699-0.035,1.018-0.035
			c0.548,0,1.582,0.018,2.731,0.85c1.326,0.954,2.043,2.511,2.043,4.119c0,2.033-1.061,3.377-1.565,3.908
			c-0.583,0.584-1.865,1.662-4.005,1.662c-0.31,0-1.025-0.017-1.848-0.282c-1.434-0.46-2.078-1.168-3.016-2.299l1.433-1.31
			c0.195,0.23,0.345,0.46,0.539,0.673c0.371,0.442,1.237,1.379,2.839,1.379c0.246,0,0.726-0.017,1.309-0.266
			c1.3-0.513,2.254-1.804,2.254-3.254c0-0.423-0.088-0.884-0.283-1.309c-0.539-1.272-1.777-2.121-3.121-2.121
			c-0.504,0-0.98,0.141-1.132,0.194c-0.885,0.283-1.538,0.83-2.255,1.415L478.621,269.639z"/>
	</g>
</g>
</svg>
