<?xml version="1.0" encoding="UTF-8"?>
<svg width="150px" height="150px" viewBox="0 0 150 150" version="1.1" xmlns="http://www.w3.org/2000/svg" xmlns:xlink="http://www.w3.org/1999/xlink">
    <!-- Generator: Sketch 47.1 (45422) - http://www.bohemiancoding.com/sketch -->
    <title>ocaso-s</title>
    <desc>Created with Sketch.</desc>
    <defs></defs>
    <g id="Page-1" stroke="none" stroke-width="1" fill="none" fill-rule="evenodd">
        <g id="ocaso-s" fill="#0A1E4F">
            <g id="ocaso" transform="translate(15.000000, 29.000000)">
                <polyline id="Fill-1" points="58.636875 21.76875 61.1475 21.76875 62.908125 0.40125 57.1125 0.40125 58.636875 21.76875"></polyline>
                <polyline id="Fill-2" points="91.456875 8.731875 96.24 11.9325 80.02125 27.943125 77.72625 26.68875 91.456875 8.731875"></polyline>
                <polyline id="Fill-3" points="96.538125 24.455625 100.828125 28.28625 84.931875 35.65875 83.62125 33.54375 96.538125 24.455625"></polyline>
                <polyline id="Fill-4" points="70.64625 23.593125 69.384375 22.8 73.501875 9.76875 78.305625 10.678125 70.64625 23.593125"></polyline>
                <polyline id="Fill-5" points="28.47375 8.731875 23.6925 11.9325 39.9075 27.943125 42.200625 26.68875 28.47375 8.731875"></polyline>
                <polyline id="Fill-6" points="23.375625 24.455625 19.09125 28.28625 34.985625 35.65875 36.301875 33.54375 23.375625 24.455625"></polyline>
                <polyline id="Fill-7" points="49.288125 23.593125 50.544375 22.8 46.42875 9.76875 41.625 10.678125 49.288125 23.593125"></polyline>
                <path d="M79.258125,45.095625 L118.6125,43.54875 L118.6125,48.661875 L1.30875,48.661875 L1.30875,43.54875 L40.621875,45.095625 C41.956875,35.615625 50.10375,28.23375 59.9475,28.23375 C69.79875,28.23375 77.9325,35.615625 79.258125,45.095625" id="Fill-8"></path>
                <path d="M11.99625,59.506875 C17.308125,59.506875 18.7275,63.82875 18.7275,68.54625 C18.7275,73.265625 17.308125,77.55 12.095625,77.55 C6.785625,77.55 5.266875,73.265625 5.266875,68.54625 C5.266875,63.82875 6.785625,59.506875 11.99625,59.506875 M11.99625,56.934375 C4.8375,56.934375 0.09,61.98 0.09,68.54625 C0.09,75.110625 4.8375,80.1225 11.99625,80.1225 C19.156875,80.1225 23.90625,75.110625 23.90625,68.54625 C23.90625,61.98 19.156875,56.934375 11.99625,56.934375" id="Fill-9"></path>
                <path d="M42.620625,59.34375 C41.165625,57.95625 38.75625,56.934375 36.609375,56.934375 C29.746875,56.934375 25.6575,62.011875 25.6575,68.218125 C25.6575,75.241875 29.289375,80.128125 36.2175,80.128125 C41.994375,80.128125 45.2925,76.89375 45.691875,71.15625 L42.85125,71.15625 C42.493125,74.6475 40.674375,77.285625 36.9075,77.285625 C32.158125,77.285625 30.838125,72.76875 30.838125,68.51625 C30.838125,64.1925 32.05875,59.769375 36.9075,59.769375 C40.875,59.769375 42.72,62.7075 43.1475,66.301875 L45.5925,66.301875 L45.5925,57.2625 L43.250625,57.2625 L42.620625,59.34375" id="Fill-10"></path>
                <path d="M56.326875,69.999375 L58.966875,62.045625 L59.030625,62.045625 L61.899375,69.999375 L56.326875,69.999375 M57.774375,79.464375 L57.774375,77.023125 L55.20375,77.023125 C54.575625,77.023125 54.148125,76.89375 54.148125,76.4325 C54.148125,76.13625 54.215625,75.931875 54.285,75.73875 L55.370625,72.440625 L62.8575,72.440625 L63.945,75.73875 C64.010625,75.931875 64.078125,76.23 64.078125,76.528125 C64.078125,76.86 63.81375,77.023125 63.054375,77.023125 L60.44625,77.023125 L60.44625,79.464375 L71.934375,79.464375 L71.934375,77.023125 C70.179375,77.023125 69.058125,76.794375 68.46375,75.241875 L61.8675,57.594375 L57.2475,57.594375 L50.9475,75.241875 C50.386875,76.794375 49.2375,77.023125 47.484375,77.023125 L47.484375,79.464375 L57.774375,79.464375" id="Fill-11"></path>
                <path d="M87.931875,59.2425 C86.2875,58.0875 84.170625,56.934375 81.661875,56.934375 C77.67375,56.934375 73.479375,58.9125 73.479375,63.560625 C73.479375,73.00125 88.19625,68.74125 88.19625,74.383125 C88.19625,75.9675 86.8125,77.32125 83.90625,77.32125 C79.2225,77.32125 76.520625,74.9475 76.055625,70.524375 L73.618125,70.524375 L73.618125,79.464375 L75.853125,79.464375 L76.5825,77.518125 C78.49875,79.066875 80.97375,80.1225 83.446875,80.1225 C88.065,80.1225 92.1525,78.4125 92.1525,73.156875 C92.1525,63.96 77.445,67.655625 77.445,62.7075 C77.445,60.526875 78.69375,59.7375 81.759375,59.7375 C85.69125,59.7375 87.770625,62.308125 88.56,65.90625 L90.93375,65.90625 L90.93375,57.5925 L89.023125,57.5925 L87.931875,59.2425" id="Fill-12"></path>
                <path d="M105.515625,59.506875 C110.833125,59.506875 112.250625,63.82875 112.250625,68.54625 C112.250625,73.265625 110.833125,77.55 105.620625,77.55 C100.305,77.55 98.79,73.265625 98.79,68.54625 C98.79,63.82875 100.305,59.506875 105.515625,59.506875 M105.515625,56.934375 C98.356875,56.934375 93.60375,61.98 93.60375,68.54625 C93.60375,75.110625 98.356875,80.1225 105.515625,80.1225 C112.67625,80.1225 117.43125,75.110625 117.43125,68.54625 C117.43125,61.98 112.67625,56.934375 105.515625,56.934375" id="Fill-13"></path>
            </g>
        </g>
    </g>
</svg>