<?xml version="1.0" encoding="UTF-8"?>
<svg width="150px" height="150px" viewBox="0 0 150 150" version="1.1" xmlns="http://www.w3.org/2000/svg" xmlns:xlink="http://www.w3.org/1999/xlink">
    <!-- Generator: Sketch 47.1 (45422) - http://www.bohemiancoding.com/sketch -->
    <title>pelayo-s</title>
    <desc>Created with Sketch.</desc>
    <defs></defs>
    <g id="Page-1" stroke="none" stroke-width="1" fill="none" fill-rule="evenodd">
        <g id="pelayo-s">
            <g id="pelayo" transform="translate(10.000000, 35.000000)">
                <path d="M3.59918605,5.08511628 C3.65662791,5.07906977 8.67372093,0.494302326 16.3104651,0.494302326 C20.2074419,0.494302326 26.5351163,2.78744186 26.5351163,12.7974419 C23.6630233,7.21046512 17.3172093,3.34069767 11.6395349,3.34069767 C6.47430233,3.34069767 3.59918605,5.08511628 3.59918605,5.08511628" id="Fill-1" fill="#5ABF22"></path>
                <path d="M4.79337209,27.7066279 C4.78732558,27.649186 0.20255814,22.632093 0.20255814,14.9953488 C0.20255814,11.0983721 2.49569767,4.76918605 12.504186,4.76918605 C6.92023256,7.6427907 3.04895349,13.9886047 3.04895349,19.6662791 C3.04895349,24.83 4.79337209,27.7066279 4.79337209,27.7066279" id="Fill-2" fill="#5ABF22"></path>
                <path d="M27.4148837,26.5124419 C27.3574419,26.5184884 22.3388372,31.1017442 14.7036047,31.1017442 C10.8051163,31.1017442 4.47744186,28.8101163 4.47744186,18.8001163 C7.34953488,24.3855814 13.6968605,28.2568605 19.3745349,28.2568605 C24.5397674,28.2568605 27.4148837,26.5124419 27.4148837,26.5124419" id="Fill-3" fill="#0071B1"></path>
                <path d="M26.2206977,3.89093023 C26.2267442,3.94837209 30.81,8.96546512 30.81,16.6037209 C30.81,20.5006977 28.5183721,26.8268605 18.5083721,26.8268605 C24.0923256,23.9562791 27.9651163,17.6089535 27.9651163,11.9312791 C27.9651163,6.76604651 26.2206977,3.89093023 26.2206977,3.89093023" id="Fill-4" fill="#5ABF22"></path>
                <path d="M123.395698,47.5860465 C125.829419,46.7501163 127.66907,45.6133721 128.740814,44.8545349 C128.542791,50.7166279 125.617791,53.5962791 119.755698,53.5962791 C114.681163,53.5962791 111.707791,51.2819767 110.951977,46.7244186 C112.714535,48.0395349 114.737093,48.5580233 116.42407,48.6532558 C116.931977,50.5669767 117.950814,51.5087209 119.755698,51.5087209 C121.820581,51.5087209 123.034419,50.1936047 123.395698,47.5860465" id="Fill-5" fill="#0071B1"></path>
                <path d="M123.510581,45.7509302 C123.50907,39.7134884 123.088837,36.5919767 119.801047,36.5919767 C116.92593,36.5919767 115.997791,39.1043023 115.997791,44.2060465 L115.999302,44.6172093 C114.208023,43.887093 112.484767,42.8455814 110.958023,41.5561628 C111.724419,36.8640698 114.694767,34.5044186 119.755698,34.5044186 C125.27314,34.5044186 128.751395,38.0990698 128.751395,44.2060465 L128.748372,44.5446512 C127.712907,44.9648837 125.939767,45.552907 123.510581,45.7509302" id="Fill-6" fill="#0071B1"></path>
                <path d="M58.2097674,51.3545349 C57.8847674,50.8904651 57.5144186,50.659186 57.1425581,50.659186 C56.2612791,50.659186 55.055,51.1232558 53.3393023,51.1232558 C50.789186,51.1232558 48.8422093,50.2722093 47.4031395,48.4567442 C46.5218605,47.3351163 45.7811628,45.2883721 45.7811628,43.9732558 C45.7811628,43.0451163 46.1515116,42.6581395 47.3109302,42.6581395 L54.6393023,42.6581395 C56.9112791,42.6581395 58.2097674,41.6151163 58.2097674,39.9145349 C58.2097674,37.0953488 54.9159302,34.5437209 49.8156977,34.5437209 C43.5076744,34.5437209 40.0777907,37.7498837 40.0777907,43.7419767 C40.0777907,49.8459302 44.3436047,53.5962791 51.3469767,53.5962791 C55.7518605,53.5962791 58.2551163,52.6696512 58.2551163,51.6266279 C58.2551163,51.5465116 58.2551163,51.4331395 58.2097674,51.3545349 Z M49.2594186,40.340814 L45.9655814,40.340814 C46.4765116,37.8677907 47.7281395,36.5919767 49.7234884,36.5919767 C51.114186,36.5919767 52.0876744,37.2495349 52.6439535,38.5631395 C52.8767442,39.0665116 52.9689535,39.4504651 52.9689535,39.7618605 C52.9689535,40.2637209 52.2736047,40.3801163 50.7423256,40.3801163 C50.2344186,40.3801163 49.7688372,40.340814 49.2594186,40.340814 L49.2594186,40.340814 Z" id="Fill-7" fill="#0071B1"></path>
                <path d="M69.3277907,53.1715116 L64.504186,53.1715116 C62.14,53.1715116 60.9790698,51.7793023 60.9790698,49.0795349 L60.9790698,48.6925581 L60.9337209,42.7125581 L60.9337209,26.39 L66.1276744,26.39 L66.1276744,48.6925581 C66.1276744,50.8133721 66.5917442,51.5087209 68.9105814,51.5087209 L69.3277907,51.5087209 L69.3277907,53.1715116" id="Fill-8" fill="#0071B1"></path>
                <path d="M88.1702326,51.0068605 L88.1702326,41.4231395 C88.1702326,36.4755814 86.1763953,34.5044186 80.5652326,34.5044186 C75.5572093,34.5044186 72.450814,36.3984884 72.3555814,39.2206977 L75.2790698,41.5773256 C77.1323256,41.5380233 78.1526744,40.9197674 78.4323256,39.5290698 C78.7089535,38.0990698 78.5713953,36.554186 80.5198837,36.554186 C82.3277907,36.554186 82.8372093,38.0990698 82.8372093,41.1918605 L82.8372093,42.8909302 C75.1853488,43.200814 71.3352326,45.2883721 71.3352326,48.9586047 C71.3352326,51.5087209 74.1181395,53.5962791 77.7823256,53.5962791 C80.380814,53.5962791 81.4918605,52.5532558 82.9294186,51.6644186 C83.5794186,51.2774419 84.5060465,51.0068605 85.6201163,51.0068605 L88.1702326,51.0068605 Z M82.8372093,48.6502326 C82.0481395,50.0016279 80.4730233,50.7755814 79.2667442,50.7755814 C77.9682558,50.7755814 77.0869767,49.8459302 77.0869767,48.3010465 C77.0869767,46.2527907 79.0339535,45.1326744 82.8372093,44.9784884 L82.8372093,48.6502326 L82.8372093,48.6502326 Z" id="Fill-9" fill="#0071B1"></path>
                <path d="M109.518953,36.4362791 L101.496744,53.9832558 C100.662326,55.7609302 100.106047,57.382907 99.1310465,58.5423256 C97.5559302,60.4363953 95.7918605,61.3645349 93.2886047,61.3645349 L89.9509302,61.3645349 L89.9509302,59.5868605 L92.4073256,59.5868605 C94.030814,59.5868605 95.9793023,58.2732558 96.8590698,56.2234884 L97.8809302,53.8683721 L91.2010465,39.8767442 C91.0906977,39.6424419 90.9863953,39.4217442 90.8851163,39.2131395 L88.8413953,34.929186 L94.1245349,34.929186 L100.523256,48.6109302 L106.551628,35.4340698 C106.829767,34.8143023 107.386047,34.4666279 108.082907,34.4666279 C108.964186,34.4666279 109.612674,35.124186 109.612674,35.8966279 C109.612674,36.0901163 109.612674,36.2427907 109.518953,36.4362791" id="Fill-10" fill="#0071B1"></path>
                <path d="M19.3322093,34.929186 L19.3322093,59.1998837 C19.3322093,60.3986047 20.4931395,61.4038372 21.9760465,61.4038372 C23.4604651,61.4038372 24.5730233,60.3986047 24.5730233,59.1998837 L24.5730233,48.9948837 C25.9168605,50.3493023 27.4012791,50.8889535 29.5356977,50.8889535 C34.8672093,50.8889535 38.0688372,47.4106977 38.0688372,41.1888372 C38.0688372,35.1211628 34.9609302,31.6051163 30.1388372,31.6051163 C26.9387209,31.6051163 25.8246512,33.2286047 23.6917442,34.5044186 C23.1369767,34.852093 22.1604651,34.9669767 20.6775581,34.9669767 C20.2603488,34.9669767 19.8431395,34.929186 19.3322093,34.929186 Z M24.5730233,42.5417442 L24.5730233,38.1353488 C25.5933721,35.6230233 26.8918605,34.3880233 28.5622093,34.3880233 C31.1576744,34.3880233 32.2263953,36.5904651 32.2263953,41.0739535 C32.2263953,45.7509302 31.1123256,48.0682558 28.4684884,48.0682558 C25.8715116,48.0682558 24.5730233,46.2134884 24.5730233,42.5417442 L24.5730233,42.5417442 Z" id="Fill-11" fill="#0071B1"></path>
            </g>
        </g>
    </g>
</svg>