<?xml version="1.0" encoding="UTF-8"?>
<!-- Generator: Adobe Illustrator 23.0.1, SVG Export Plug-In . SVG Version: 6.00 Build 0)  -->
<svg version="1.1" id="Capa_1" xmlns="http://www.w3.org/2000/svg" xmlns:xlink="http://www.w3.org/1999/xlink" x="0px" y="0px" viewBox="0 0 409 156" style="enable-background:new 0 0 409 156;" xml:space="preserve">
<style type="text/css">
	.st0{fill:#009CB9;}
</style>
<g>
	<path class="st0" d="M33.2,88.7l-5,3.6c-0.1,0.1-0.2,0.1-0.4,0.1c-0.2,0-0.3-0.1-0.4-0.2c-3.5-4.7-5.6-10.4-5.6-16.9   c0-6.1,1.9-11.8,5.2-16.5c0.1-0.2,0.2-0.3,0.4-0.3c0.1,0,0.2,0.1,0.5,0.2l4.9,3.6c0.1,0.1,0.2,0.2,0.2,0.4s0,0.3-0.1,0.4   c-2.4,3.5-3.8,7.5-3.8,12.2c0,4.8,1.7,9.1,4.3,12.7L33.2,88.7z"/>
</g>
<g>
	<path class="st0" d="M375.7,62.3l5-3.6c0.1-0.1,0.2-0.1,0.4-0.1s0.3,0.1,0.4,0.2c3.5,4.7,5.6,10.4,5.6,16.9   c0,6.1-1.9,11.8-5.2,16.5c-0.1,0.2-0.2,0.3-0.4,0.3c-0.1,0-0.2-0.1-0.5-0.2l-4.9-3.6c-0.1-0.1-0.2-0.2-0.2-0.4s0-0.3,0.1-0.4   c2.4-3.5,3.8-7.5,3.8-12.2c0-4.8-1.7-9.1-4.3-12.7L375.7,62.3z"/>
</g>
<g>
	<path class="st0" d="M62.8,75.3h-6v10.9h-8V49.9h14.8c8.7,0,13.9,5.1,13.9,12.6v0.1C77.5,70.9,71,75.3,62.8,75.3z M69.4,62.5   c0-3.5-2.5-5.5-6.5-5.5h-6.1v11.1h6.3C67.1,68.1,69.4,65.7,69.4,62.5L69.4,62.5z"/>
	<path class="st0" d="M105.4,86.1l-7.8-11.6h-6.2v11.6h-8V49.9h16.6c8.6,0,13.7,4.5,13.7,12V62c0,5.9-3.2,9.5-7.8,11.3l8.8,12.9   H105.4z M105.6,62.2c0-3.4-2.4-5.2-6.2-5.2h-7.9v10.4h8.1C103.5,67.4,105.7,65.4,105.6,62.2L105.6,62.2L105.6,62.2z"/>
	<path class="st0" d="M120.9,86.1V49.9h27.3v7.1h-19.4v7.3h17.1v7.1h-17.1V79h19.7V86L120.9,86.1L120.9,86.1z"/>
	<path class="st0" d="M174.2,86.4h-7.1l-14.7-36.6h8.8l9.5,25.6l9.5-25.6h8.6L174.2,86.4z"/>
	<path class="st0" d="M194.8,86.1V49.9h8v36.3H194.8z"/>
	<path class="st0" d="M224.8,86.6c-5.5,0-11.1-2-15.3-5.8l4.7-5.7c3.3,2.7,6.7,4.4,10.8,4.4c3.3,0,5.2-1.3,5.2-3.4V76   c0-2-1.2-3.1-7.3-4.7c-7.3-1.9-12-3.9-12-11.1v-0.1c0-6.6,5.3-10.9,12.7-10.9c5.3,0,9.8,1.7,13.5,4.7l-4.2,6   c-3.3-2.2-6.3-3.5-9.4-3.5c-3.1,0-4.7,1.4-4.7,3.2v0.1c0,2.4,1.6,3.2,7.8,4.7c7.3,2,11.5,4.6,11.5,10.9v0.1   C238.1,82.6,232.6,86.6,224.8,86.6z"/>
	<path class="st0" d="M262.6,86.7c-11.2,0-19.3-8.4-19.3-18.6V68c0-10.3,8.1-18.8,19.3-18.8c11.2,0,19.3,8.4,19.3,18.6v0.1   C281.9,78.3,273.8,86.7,262.6,86.7z M273.6,68c0-6.2-4.6-11.4-11-11.4s-10.9,5.1-10.9,11.3v0.1c0,6.2,4.6,11.4,11,11.4   C269.1,79.4,273.6,74.2,273.6,68L273.6,68L273.6,68z"/>
	<path class="st0" d="M311,86.1l-7.8-11.6H297v11.6h-8V49.9h16.6c8.6,0,13.7,4.5,13.7,12V62c0,5.9-3.2,9.5-7.8,11.3l8.8,12.9H311z    M311.2,62.2c0-3.4-2.4-5.2-6.2-5.2h-7.9v10.4h8.1C309.1,67.4,311.3,65.4,311.2,62.2L311.2,62.2L311.2,62.2z"/>
	<path class="st0" d="M353.4,86.1l-3.3-8.1h-15.3l-3.3,8.1h-8.1l15.6-36.6h7.3l15.5,36.6C361.8,86.1,353.4,86.1,353.4,86.1z    M342.4,59.2l-4.8,11.7h9.7L342.4,59.2z"/>
</g>
<g>
	<path class="st0" d="M115.9,116.2c-4.8,0-8.2-3.4-8.2-8l0,0c0-4.5,3.4-8.1,8.2-8.1c2.8,0,4.5,0.7,6.1,2.1l-2.1,2.6   c-1.2-1-2.2-1.6-4.1-1.6c-2.5,0-4.5,2.2-4.5,4.8l0,0c0,2.9,2,4.9,4.7,4.9c1.2,0,2.3-0.3,3.3-0.9V110h-3.4v-3h6.8v6.8   C121.1,115.1,118.8,116.2,115.9,116.2z"/>
	<path class="st0" d="M139.8,115.9v-15.5h11.7v3.1h-8.3v3.2h7.3v3.1h-7.3v3.3h8.5v3.1L139.8,115.9L139.8,115.9z"/>
	<path class="st0" d="M179.4,115.9l-7.5-9.9v9.9h-3.3v-15.5h3.2l7.3,9.6v-9.6h3.3v15.5C182.3,115.9,179.4,115.9,179.4,115.9z"/>
	<path class="st0" d="M199.9,115.9v-15.5h11.7v3.1h-8.3v3.2h7.3v3.1h-7.3v3.3h8.5v3.1L199.9,115.9L199.9,115.9z"/>
	<path class="st0" d="M238.1,115.9l-3.3-5H232v5h-3.4v-15.5h7.1c3.6,0,5.9,2,5.9,5.1l0,0c0,2.5-1.4,4.1-3.3,4.8l3.8,5.6   C242,115.9,238.1,115.9,238.1,115.9z M238.2,105.7c0-1.5-1-2.2-2.7-2.2H232v4.5h3.4C237.2,107.9,238.2,107.1,238.2,105.7   L238.2,105.7z"/>
	<path class="st0" d="M270.2,115.9l-1.4-3.5h-6.6l-1.4,3.5h-3.4l6.7-15.6h3.2l6.7,15.6C273.9,115.9,270.2,115.9,270.2,115.9z    M265.4,104.4l-2,5h4.1L265.4,104.4z"/>
	<path class="st0" d="M290,115.9v-15.5h3.4v12.5h7.7v3.1H290z"/>
</g>
</svg>